<?xml version="1.0" encoding="utf-8"?>
<!-- Generator: Adobe Illustrator 19.0.1, SVG Export Plug-In . SVG Version: 6.00 Build 0)  -->
<svg version="1.1" id="Слой_1" xmlns="http://www.w3.org/2000/svg" xmlns:xlink="http://www.w3.org/1999/xlink" x="0px" y="0px"
	 width="1024px" height="1024px" viewBox="0 0 1024 1024" style="enable-background:new 0 0 1024 1024;" xml:space="preserve">
<style type="text/css">
	.st0{fill:#3977B8;}
	.st1{fill:url(#SVGID_1_);}
	.st2{fill:url(#SVGID_2_);}
	.st3{fill:url(#SVGID_3_);}
	.st4{fill:url(#SVGID_4_);}
</style>
<g>
	<g>
		<path class="st0" d="M131.5124664,700.9403076v0.2053223c-3.8691635,1.7438354-7.1854477,6.1538696-7.1854477,13.6408691
			v37.6396484c0,13.6408691-8.8437576,21.8455811-25.0941849,21.8455811c-19.3458176,0-29.4054565-8.7177124-29.4054565-21.947937
			v-41.7426147c0-4.9230957-1.9899673-7.8970337-6.0803452-9.4355469v-0.2053223h29.8478851v0.2053223
			c-3.9796066,1.3331299-6.0800171,4.6154175-6.0800171,9.4355469v41.024231
			c0,12.7178345,6.4116821,18.8717041,17.9084015,18.8717041c10.7232819,0,17.2454147-6.7692871,17.2454147-18.2562866V714.786499
			c0-7.4869995-3.3162918-11.8970337-7.1854553-13.6408691v-0.2053223H131.5124664z"/>
		<path class="st0" d="M209.6661835,700.9403076v0.2053223c-3.8691711,1.7438354-7.1857758,6.1538696-7.1857758,13.6408691
			v59.3829346h-0.2209015l-51.9571075-64.6137085v49.3320313c0,7.4869385,3.3162842,11.8970337,7.1854401,13.6401978v0.2053223
			h-16.1399689v-0.2053223c3.8691559-1.7431641,7.1857758-6.1532593,7.1857758-13.6401978v-49.3320313
			c0-3.7946777-3.6482697-7.1793213-6.6329041-8.4100952v-0.2053223h23.1042175l35.7066956,44.5119019V714.786499
			c0-7.4869995-3.3162842-11.8970337-7.1854553-13.6408691v-0.2053223H209.6661835z"/>
		<path class="st0" d="M249.2393341,772.7332764h-29.8475647v-0.2053223
			c4.0900574-1.5384521,6.0800323-4.5123901,6.0800323-9.4354858v-52.5112915c0-4.9230957-1.989975-7.8970337-6.0800323-9.4355469
			v-0.2053223h29.8475647v0.2053223c-3.9796143,1.3331299-6.0800171,4.6154175-6.0800171,9.4355469v52.5112915
			c0,4.8207397,2.1004028,8.102356,6.0800171,9.4354858V772.7332764z"/>
		<path class="st0" d="M326.0678101,721.4527588h-0.2212219c-5.416687-11.6917114-9.8387451-18.6663208-22.2200012-19.076355
			h-2.2108459v60.7160645c0,4.8207397,2.1004028,8.102356,6.0800171,9.4354858v0.2053223h-29.8475647v-0.2053223
			c4.0900574-1.5384521,6.0800171-4.5123901,6.0800171-9.4354858v-60.7160645h-1.9899597
			c-12.6021729,0.4100342-17.2450867,7.6923828-22.4408875,19.076355h-0.2212219l1.1054077-20.5124512h64.7804871
			L326.0678101,721.4527588z"/>
		<path class="st0" d="M390.1815186,749.7592773l-1.6583252,22.973999h-57.7054749v-0.2053223
			c4.0903931-1.5384521,6.0800171-4.5123901,6.0800171-9.4354858v-52.5112915c0-4.9230957-1.989624-7.8970337-6.0800171-9.4355469
			v-0.2053223h55.4946289v19.8970947h-0.2212219c-1.989624-4.102356-3.7583923-7.3846436-5.416687-9.7432251
			c-3.2058411-4.8207397-8.9542236-8.7177734-18.2400818-8.7177734h-7.8490906v32.6142578h2.1004028
			c8.0700073,0,13.3762512-3.7946777,17.2454224-12.1017456h0.2212219v26.5632935h-0.2212219
			c-3.9796143-8.5130615-9.2858582-13.0254517-17.2454224-13.0254517h-2.1004028v27.6911011
			c0,5.2307739,3.427063,7.1793213,11.0549316,7.1793213c4.4217224,0,8.0700073-0.9230957,11.0546265-2.871582
			c5.8587952-3.7946777,8.9541931-9.2301636,13.2654724-18.6663208H390.1815186z"/>
		<path class="st0" d="M398.2484741,772.5279541c4.0903931-1.5384521,6.0800171-4.5123901,6.0800171-9.4354858v-52.5112915
			c0-4.9230957-1.989624-7.8970337-6.0800171-9.4355469v-0.2053223h33.2746277
			c22.3304443,0,36.8121338,13.6408691,36.8121338,35.6911621c0.3316345,21.7432251-16.6925354,36.4094849-36.8121338,36.1018066
			h-33.2746277V772.5279541z M429.9755554,771.2971802c12.3812561,0,18.9034119-12.3071289,18.9034119-32.4088745
			c0-20.4100952-7.0750122-36.5119019-20.8933716-36.5119019h-5.969574v62.2545166
			c0,4.8207397,1.8795166,6.6662598,7.2962036,6.6662598H429.9755554z"/>
		<path class="st0" d="M553.8948364,699.4018555c6.6325684,0,13.3759155,1.2307739,22.3301392,3.5899658v21.6402588h-0.2208862
			c-7.185791-15.4863892-13.1550293-23.7941284-21.9991455-23.7941284c-10.3909302,0-18.9033813,12.7177734-18.9033813,31.0757446
			c0,8.9230957,1.9899902,16.3077393,6.0800171,22.1532593c4.0906982,5.7438354,10.0599976,8.6154175,18.019165,8.6154175
			c8.8441162,0,15.3665771-3.897644,20.3408203-10.871582h0.2208862
			c-6.0800171,16.3070679-15.8076782,22.4609375-29.4050903,22.4609375c-19.0141602,0-32.5008545-14.3585815-32.5008545-35.2810669
			C517.4140625,716.3249512,536.0965576,699.0941162,553.8948364,699.4018555z"/>
		<path class="st0" d="M663.8858643,772.7332764H634.038269v-0.2053223
			c4.0907593-1.5384521,6.0800781-4.5123901,6.0800781-9.4354858v-26.8710327h-26.6417236v26.8710327
			c0,4.8207397,2.100708,8.102356,6.0800171,9.4354858v0.2053223h-29.8475952v-0.2053223
			c4.0900879-1.5384521,6.0800171-4.5123901,6.0800171-9.4354858v-52.5112915c0-4.9230957-1.9899292-7.8970337-6.0800171-9.4355469
			v-0.2053223h29.8475952v0.2053223c-3.9793091,1.3331299-6.0800171,4.6154175-6.0800171,9.4355469v24.2047729h26.6417236
			v-24.2047729c0-4.9230957-1.9893188-7.8970337-6.0800781-9.4355469v-0.2053223h29.8475952v0.2053223
			c-3.9793091,1.3331299-6.0800171,4.6154175-6.0800171,9.4355469v52.5112915c0,4.8207397,2.100708,8.102356,6.0800171,9.4354858
			V772.7332764z"/>
		<path class="st0" d="M745.3566284,772.7332764h-33.0534058v-0.2053223
			c4.3109131-1.2307739,6.3009033-3.1793213,6.3009033-6.4609375c0-1.6414795-0.4424438-3.5899658-1.437439-5.7438354
			l-3.8684692-9.2301636h-25.6473999l-3.647644,8.6148071c-0.7741089,1.6414795-1.1057739,3.1792603-1.1057739,4.7177124
			c0,3.8977051,2.5425415,6.5639648,7.7383423,8.102417v0.2053223H671.289917v-0.2053223
			c4.0900879-1.3331299,7.8491211-5.7431641,11.0549316-13.3325195l25.9784546-60.6137085h0.2208862l26.4207764,60.5106812
			c3.5375366,7.8977051,7.2958984,12.7177734,10.3916626,13.4355469V772.7332764z M712.6348877,749.6569214l-12.0499268-28.7171631
			l-12.270813,28.7171631H712.6348877z"/>
		<path class="st0" d="M820.083374,700.9403076v0.2053223c-3.8691406,1.7438354-7.185791,6.1538696-7.185791,13.6408691v59.3829346
			h-0.2208862l-51.9574585-64.6137085v49.3320313c0,7.4869385,3.3166504,11.8970337,7.185791,13.6401978v0.2053223h-16.1399536
			v-0.2053223c3.8691406-1.7431641,7.18573-6.1532593,7.18573-13.6401978v-49.3320313
			c0-3.7946777-3.6482544-7.1793213-6.6331787-8.4100952v-0.2053223h23.1048584l35.706665,44.5119019V714.786499
			c0-7.4869995-3.3165894-11.8970337-7.18573-13.6408691v-0.2053223H820.083374z"/>
		<path class="st0" d="M865.0739746,699.4018555c6.6332397,0,13.3765869,1.2307739,22.3308105,3.5899658v21.6402588h-0.2209473
			c-7.18573-15.4863892-13.1556396-23.7941284-21.9990845-23.7941284c-10.3916016,0-18.9033813,12.7177734-18.9033813,31.0757446
			c0,8.9230957,1.9899292,16.3077393,6.0800171,22.1532593c4.0900269,5.7438354,10.0599365,8.6154175,18.019165,8.6154175
			c8.8434448,0,15.3659058-3.897644,20.3408203-10.871582h0.2208862
			c-6.0800171,16.3070679-15.8082886,22.4609375-29.4057617,22.4609375c-19.0141602,0-32.5008545-14.3585815-32.5008545-35.2810669
			C828.5938721,716.3249512,847.2763672,699.0941162,865.0739746,699.4018555z"/>
		<path class="st0" d="M960.2529907,749.7592773l-1.6583252,22.973999H900.888855v-0.2053223
			c4.0900269-1.5384521,6.0800171-4.5123901,6.0800171-9.4354858v-52.5112915c0-4.9230957-1.9899902-7.8970337-6.0800171-9.4355469
			v-0.2053223h55.4949341v19.8970947h-0.2214966c-1.9899902-4.102356-3.7584229-7.3846436-5.416748-9.7432251
			c-3.2058105-4.8207397-8.9541626-8.7177734-18.2400513-8.7177734h-7.8491211v32.6142578h2.100769
			c8.0700073,0,13.3759155-3.7946777,17.2450562-12.1017456h0.2208862v26.5632935h-0.2208862
			c-3.9799194-8.5130615-9.2858276-13.0254517-17.2450562-13.0254517h-2.100769v27.6911011
			c0,5.2307739,3.4274292,7.1793213,11.0549927,7.1793213c4.4216919,0,8.0699463-0.9230957,11.0542603-2.871582
			c5.8591309-3.7946777,8.954834-9.2301636,13.2658081-18.6663208H960.2529907z"/>
	</g>
	<g>
		
			<linearGradient id="SVGID_1_" gradientUnits="userSpaceOnUse" x1="514.4093018" y1="436.1680298" x2="714.4998779" y2="636.258606">
			<stop  offset="0.5563116" style="stop-color:#204980"/>
			<stop  offset="1" style="stop-color:#07285B"/>
		</linearGradient>
		<path class="st1" d="M700.8490601,249.728241c-7.9595337,213.1732788-118.3972168,284.1507263-118.3972168,284.1507263
			c-79.6590881,105.3793945-242.1694031,108.5360718-242.1694031,108.5360718h368.0609436V249.728241H700.8490601z"/>
		
			<linearGradient id="SVGID_2_" gradientUnits="userSpaceOnUse" x1="361.624115" y1="663.7567749" x2="737.7169189" y2="287.6639709">
			<stop  offset="0" style="stop-color:#2365AD"/>
			<stop  offset="0.0656043" style="stop-color:#1F5CA0"/>
			<stop  offset="0.2491087" style="stop-color:#144582"/>
			<stop  offset="0.4292402" style="stop-color:#0D356C"/>
			<stop  offset="0.6029285" style="stop-color:#092B5F"/>
			<stop  offset="0.7628824" style="stop-color:#07285B"/>
		</linearGradient>
		<path class="st2" d="M582.4518433,533.8789673l5.881958-6.9302368
			C699.4475708,393.4042358,687.914917,249.728241,687.914917,249.728241h-6.0214844
			c0,0,3.6310425,106.4282532-57.7090454,196.3434143c0,0-70.3121948,175.7803955-283.901947,196.3433838
			C340.2824402,642.4150391,502.7927551,639.2583618,582.4518433,533.8789673z"/>
		
			<linearGradient id="SVGID_3_" gradientUnits="userSpaceOnUse" x1="422.4902039" y1="578.1262207" x2="681.4905396" y2="319.125885">
			<stop  offset="0.2371176" style="stop-color:#07285B"/>
			<stop  offset="0.3970715" style="stop-color:#092B5F"/>
			<stop  offset="0.5707598" style="stop-color:#0D356C"/>
			<stop  offset="0.7508913" style="stop-color:#144582"/>
			<stop  offset="0.9343957" style="stop-color:#1F5CA0"/>
			<stop  offset="1" style="stop-color:#2365AD"/>
		</linearGradient>
		<path class="st3" d="M624.1799316,446.0700684C511.4199829,623.1799927,315.6599731,617.8699951,315.6599731,617.8699951v-15.25
			c150.6300049,1.9700317,237.5299683-103.1599731,238.8600464-104.789978
			c0.0100098-0.0100098,0.0200195-0.0200195,0.0200195-0.0200195c0.0300293-0.0200195,0.1999512-0.1300049,0.5-0.3300171
			c0.1298828-0.0899658,0.2800293-0.1900024,0.4599609-0.2999878c11.1599121-7.3300171,114.5-79.6900024,121.0999756-247.4500122
			h5.2900391C681.8900146,249.7299805,685.5200195,356.1599121,624.1799316,446.0700684z"/>
		
			<linearGradient id="SVGID_4_" gradientUnits="userSpaceOnUse" x1="322.15271" y1="243.2422791" x2="568.2261353" y2="489.3157043">
			<stop  offset="0.2487805" style="stop-color:#3977B8"/>
			<stop  offset="1" style="stop-color:#092B5F"/>
		</linearGradient>
		<path class="st4" d="M315.6647644,249.7302246v334.9840088c0,0,118.7314148,4.9029541,220.7424622-72.144104
			c9.8239136-8.0099792,18.1212769-14.7628174,18.1212769-14.7628174s115.1036377-70.7252502,122.0720215-248.0770874H315.6647644z
			 M512,294.6653748c-8.7823181,4.2564392-16.3074341,15.0142822-16.3074341,33.315094v91.9177246
			c0,33.3153076-20.0788879,53.3583679-56.9500732,53.3583679c-43.911438,0-66.7561951-21.3003845-66.7561951-53.6098328
			V317.7075806c0-12.0328979-4.507782-19.2886963-13.7930298-23.0422058v-0.5026855h67.743988v0.5026855
			c-9.033783,3.2505798-13.7930298,11.2607727-13.7930298,23.0422058v93.0491943
			c0,31.070343,14.5473022,46.102356,40.6427612,46.102356c24.3353577,0,39.1340942-16.5407715,39.1340942-44.593811v-84.2848511
			c0-18.3008118-7.525116-29.0586548-16.3074036-33.315094v-0.5026855H512V294.6653748z"/>
	</g>
</g>
</svg>
