<?xml version="1.0" encoding="UTF-8"?>
<!DOCTYPE svg PUBLIC "-//W3C//DTD SVG 1.1//EN" "http://www.w3.org/Graphics/SVG/1.1/DTD/svg11.dtd">
<svg xmlns="http://www.w3.org/2000/svg" version="1.1" width="1024px" height="549px" style="shape-rendering:geometricPrecision; text-rendering:geometricPrecision; image-rendering:optimizeQuality; fill-rule:evenodd; clip-rule:evenodd" xmlns:xlink="http://www.w3.org/1999/xlink">
<g><path style="opacity:1" fill="#3775b5" d="M 450.5,9.5 C 449.791,10.404 448.791,10.7373 447.5,10.5C 444.813,10.3359 442.146,10.5026 439.5,11C 425.167,25.3333 410.833,39.6667 396.5,54C 397.833,54.3333 399.167,54.6667 400.5,55C 387.154,55.1673 373.821,55.6673 360.5,56.5C 361.036,58.1449 361.703,58.4782 362.5,57.5C 366.115,59.0208 368.615,61.6875 370,65.5C 371.225,70.0853 371.725,74.752 371.5,79.5C 352.5,98.1667 333.5,116.833 314.5,135.5C 314.5,93.5 314.5,51.5 314.5,9.5C 359.833,9.5 405.167,9.5 450.5,9.5 Z"/></g>
<g><path style="opacity:1" fill="#326faf" d="M 450.5,9.5 C 456.833,9.5 463.167,9.5 469.5,9.5C 453.049,26.9679 436.716,42.9679 420.5,57.5C 415.025,56.5111 409.358,56.1778 403.5,56.5C 403.369,55.7611 403.536,55.0944 404,54.5C 418.702,39.9652 433.202,25.2985 447.5,10.5C 448.791,10.7373 449.791,10.404 450.5,9.5 Z"/></g>
<g><path style="opacity:1" fill="#326aae" d="M 469.5,9.5 C 472.167,9.5 474.833,9.5 477.5,9.5C 455.881,31.7853 433.881,53.7853 411.5,75.5C 411.375,67.7488 414.375,61.7488 420.5,57.5C 436.716,42.9679 453.049,26.9679 469.5,9.5 Z"/></g>
<g><path style="opacity:1" fill="#316aa7" d="M 477.5,9.5 C 484.5,9.5 491.5,9.5 498.5,9.5C 469.881,38.7853 440.881,67.7853 411.5,96.5C 411.5,89.5 411.5,82.5 411.5,75.5C 433.881,53.7853 455.881,31.7853 477.5,9.5 Z"/></g>
<g><path style="opacity:1" fill="#2b64a1" d="M 502.5,9.5 C 510.833,9.5 519.167,9.5 527.5,9.5C 527.5,9.83333 527.5,10.1667 527.5,10.5C 512.701,24.7981 498.035,39.2981 483.5,54C 484.737,54.2321 485.737,54.7321 486.5,55.5C 483.347,55.1569 481.013,55.4902 479.5,56.5C 479.833,57.1667 480.167,57.8333 480.5,58.5C 479.761,58.369 479.094,58.5357 478.5,59C 456.299,81.3683 433.965,103.535 411.5,125.5C 411.5,117.167 411.5,108.833 411.5,100.5C 442.167,70.5 472.5,40.1667 502.5,9.5 Z"/></g>
<g><path style="opacity:1" fill="#265d9c" d="M 527.5,9.5 C 535.833,9.5 544.167,9.5 552.5,9.5C 538.035,24.4652 523.369,39.2985 508.5,54C 503.492,54.8693 503.825,55.5359 509.5,56C 508.956,56.7172 508.289,57.2172 507.5,57.5C 498.348,56.5064 489.015,56.1731 479.5,56.5C 481.013,55.4902 483.347,55.1569 486.5,55.5C 501.251,41.2502 515.917,26.7502 530.5,12C 529.263,11.7679 528.263,11.2679 527.5,10.5C 527.5,10.1667 527.5,9.83333 527.5,9.5 Z"/></g>
<g><path style="opacity:1" fill="#255c96" d="M 552.5,9.5 C 557.167,9.5 561.833,9.5 566.5,9.5C 564.708,10.3091 562.708,10.8091 560.5,11C 539.299,32.3683 517.965,53.535 496.5,74.5C 497.434,70.6272 498.934,66.9605 501,63.5C 502.406,60.5914 504.572,58.5914 507.5,57.5C 508.289,57.2172 508.956,56.7172 509.5,56C 503.825,55.5359 503.492,54.8693 508.5,54C 523.369,39.2985 538.035,24.4652 552.5,9.5 Z"/></g>
<g><path style="opacity:1" fill="#245795" d="M 566.5,9.5 C 576.167,9.5 585.833,9.5 595.5,9.5C 594.081,10.4511 592.415,10.7845 590.5,10.5C 586.154,10.3343 581.821,10.501 577.5,11C 578.167,11.3333 578.833,11.6667 579.5,12C 551.667,39.8333 523.833,67.6667 496,95.5C 495.768,94.2625 495.268,93.2625 494.5,92.5C 494.27,86.3555 494.936,80.3555 496.5,74.5C 517.965,53.535 539.299,32.3683 560.5,11C 562.708,10.8091 564.708,10.3091 566.5,9.5 Z"/></g>
<g><path style="opacity:1" fill="#1f518f" d="M 595.5,9.5 C 597.5,9.5 599.5,9.5 601.5,9.5C 601.881,10.9311 602.881,11.7645 604.5,12C 568.333,48.1667 532.167,84.3333 496,120.5C 495.79,118.942 495.29,117.609 494.5,116.5C 494.5,114.5 494.5,112.5 494.5,110.5C 495.302,109.048 495.802,107.382 496,105.5C 527.701,73.9654 559.201,42.2987 590.5,10.5C 592.415,10.7845 594.081,10.4511 595.5,9.5 Z"/></g>
<g><path style="opacity:1" fill="#1e5189" d="M 601.5,9.5 C 612.5,9.5 623.5,9.5 634.5,9.5C 633.432,10.4345 632.099,10.7678 630.5,10.5C 626.466,10.6721 622.466,11.1721 618.5,12C 577.667,52.8333 536.833,93.6667 496,134.5C 495.802,136.382 495.302,138.048 494.5,139.5C 494.5,131.833 494.5,124.167 494.5,116.5C 495.29,117.609 495.79,118.942 496,120.5C 532.167,84.3333 568.333,48.1667 604.5,12C 602.881,11.7645 601.881,10.9311 601.5,9.5 Z"/></g>
<g><path style="opacity:1" fill="#194b82" d="M 634.5,9.5 C 644.5,9.5 654.5,9.5 664.5,9.5C 661.713,10.4767 658.713,10.81 655.5,10.5C 601.549,62.7841 548.216,115.784 495.5,169.5C 495.167,169.5 494.833,169.5 494.5,169.5C 494.5,160.167 494.5,150.833 494.5,141.5C 495.29,142.609 495.79,143.942 496,145.5C 541.035,100.632 585.868,55.6321 630.5,10.5C 632.099,10.7678 633.432,10.4345 634.5,9.5 Z"/></g>
<g><path style="opacity:1" fill="#19447d" d="M 664.5,9.5 C 668.5,9.5 672.5,9.5 676.5,9.5C 676.81,12.7131 676.477,15.7131 675.5,18.5C 614.167,79.5 552.833,140.5 491.5,201.5C 494.143,191.024 495.143,180.357 494.5,169.5C 494.833,169.5 495.167,169.5 495.5,169.5C 549.167,117.502 602.5,64.5021 655.5,10.5C 658.713,10.81 661.713,10.4767 664.5,9.5 Z"/></g>
<g><path style="opacity:1" fill="#1e61a5" d="M 676.5,9.5 C 678.167,9.5 679.833,9.5 681.5,9.5C 681.911,32.5967 679.578,55.2634 674.5,77.5C 672.5,76.1667 670.833,74.5 669.5,72.5C 670.314,65.1368 671.314,57.8035 672.5,50.5C 672.5,49.8333 672.5,49.1667 672.5,48.5C 673.85,39.3467 674.85,30.0134 675.5,20.5C 675.5,19.8333 675.5,19.1667 675.5,18.5C 676.477,15.7131 676.81,12.7131 676.5,9.5 Z"/></g>
<g><path style="opacity:1" fill="#052557" d="M 681.5,9.5 C 683.604,9.2011 685.604,9.53443 687.5,10.5C 688.858,84.0687 671.858,153.069 636.5,217.5C 635.836,216.352 635.669,215.019 636,213.5C 632.629,210.297 629.462,206.964 626.5,203.5C 627.11,202.609 627.443,201.609 627.5,200.5C 629.95,198.371 631.617,195.704 632.5,192.5C 634.4,190.381 636.066,188.047 637.5,185.5C 639.422,181.987 641.088,178.321 642.5,174.5C 646.615,167.933 649.949,160.933 652.5,153.5C 655.558,146.661 658.225,139.661 660.5,132.5C 661.612,130.401 662.279,128.067 662.5,125.5C 664.432,121.805 665.765,117.805 666.5,113.5C 670.45,101.806 673.117,89.8062 674.5,77.5C 679.578,55.2634 681.911,32.5967 681.5,9.5 Z"/></g>
<g><path style="opacity:1" fill="#1e447d" d="M 708.5,236.5 C 707.686,234.369 707.186,232.036 707,229.5C 649.32,287.014 591.82,344.68 534.5,402.5C 536.969,403.168 539.302,403.835 541.5,404.5C 477.167,404.5 412.833,404.5 348.5,404.5C 366.064,401.73 383.73,398.897 401.5,396C 402.352,394.272 403.352,394.105 404.5,395.5C 411.589,394.478 418.589,392.978 425.5,391C 432.642,388.287 439.809,385.787 447,383.5C 447.333,383.833 447.667,384.167 448,384.5C 453.516,382.043 459.016,379.71 464.5,377.5C 471.876,375.206 478.876,372.04 485.5,368C 482.912,365.584 480.578,363.084 478.5,360.5C 480.833,359.167 483.167,357.833 485.5,356.5C 487.764,359.431 490.431,362.097 493.5,364.5C 499.84,361.997 505.84,358.997 511.5,355.5C 517.367,352.404 523.033,349.071 528.5,345.5C 529.5,343.833 530.833,342.5 532.5,341.5C 539.936,337.117 546.603,331.784 552.5,325.5C 553.239,325.631 553.906,325.464 554.5,325C 562.072,317.932 569.072,310.432 575.5,302.5C 579.843,297.792 584.176,293.125 588.5,288.5C 589.167,288.5 589.5,288.167 589.5,287.5C 590.167,287.5 590.5,287.167 590.5,286.5C 591.167,286.5 591.5,286.167 591.5,285.5C 592.167,285.5 592.5,285.167 592.5,284.5C 593.167,284.5 593.5,284.167 593.5,283.5C 601.774,277.061 609.274,269.728 616,261.5C 646.328,223.848 667.995,181.515 681,134.5C 692.343,93.5987 698.51,51.932 699.5,9.5C 702.5,9.5 705.5,9.5 708.5,9.5C 708.5,85.1667 708.5,160.833 708.5,236.5 Z"/></g>
<g><path style="opacity:1" fill="#2b64a8" d="M 498.5,9.5 C 499.833,9.5 501.167,9.5 502.5,9.5C 472.5,40.1667 442.167,70.5 411.5,100.5C 411.5,99.1667 411.5,97.8333 411.5,96.5C 440.881,67.7853 469.881,38.7853 498.5,9.5 Z"/></g>
<g><path style="opacity:1" fill="#2b649c" d="M 527.5,10.5 C 528.263,11.2679 529.263,11.7679 530.5,12C 515.917,26.7502 501.251,41.2502 486.5,55.5C 485.737,54.7321 484.737,54.2321 483.5,54C 498.035,39.2981 512.701,24.7981 527.5,10.5 Z"/></g>
<g><path style="opacity:1" fill="#23578e" d="M 590.5,10.5 C 559.201,42.2987 527.701,73.9654 496,105.5C 495.802,107.382 495.302,109.048 494.5,110.5C 494.5,104.5 494.5,98.5 494.5,92.5C 495.268,93.2625 495.768,94.2625 496,95.5C 523.833,67.6667 551.667,39.8333 579.5,12C 578.833,11.6667 578.167,11.3333 577.5,11C 581.821,10.501 586.154,10.3343 590.5,10.5 Z"/></g>
<g><path style="opacity:1" fill="#1e4b89" d="M 630.5,10.5 C 585.868,55.6321 541.035,100.632 496,145.5C 495.79,143.942 495.29,142.609 494.5,141.5C 494.5,140.833 494.5,140.167 494.5,139.5C 495.302,138.048 495.802,136.382 496,134.5C 536.833,93.6667 577.667,52.8333 618.5,12C 622.466,11.1721 626.466,10.6721 630.5,10.5 Z"/></g>
<g><path style="opacity:1" fill="#194383" d="M 655.5,10.5 C 602.5,64.5021 549.167,117.502 495.5,169.5C 548.216,115.784 601.549,62.7841 655.5,10.5 Z"/></g>
<g><path style="opacity:1" fill="#3370b5" d="M 447.5,10.5 C 433.202,25.2985 418.702,39.9652 404,54.5C 403.536,55.0944 403.369,55.7611 403.5,56.5C 389.656,56.171 375.99,56.5043 362.5,57.5C 361.703,58.4782 361.036,58.1449 360.5,56.5C 373.821,55.6673 387.154,55.1673 400.5,55C 399.167,54.6667 397.833,54.3333 396.5,54C 410.833,39.6667 425.167,25.3333 439.5,11C 442.146,10.5026 444.813,10.3359 447.5,10.5 Z"/></g>
<g><path style="opacity:1" fill="#193d7d" d="M 675.5,18.5 C 675.5,19.1667 675.5,19.8333 675.5,20.5C 614.701,80.7987 554.035,141.299 493.5,202C 492.906,202.464 492.239,202.631 491.5,202.5C 491.5,202.167 491.5,201.833 491.5,201.5C 552.833,140.5 614.167,79.5 675.5,18.5 Z"/></g>
<g><path style="opacity:1" fill="#123e76" d="M 675.5,20.5 C 674.85,30.0134 673.85,39.3467 672.5,48.5C 574.806,145.194 477.806,242.528 381.5,340.5C 371.625,342.672 361.625,344.006 351.5,344.5C 351.5,344.167 351.5,343.833 351.5,343.5C 390.215,305.452 428.548,267.119 466.5,228.5C 472.039,225.47 477.206,221.803 482,217.5C 485.691,212.773 488.858,207.773 491.5,202.5C 492.239,202.631 492.906,202.464 493.5,202C 554.035,141.299 614.701,80.7987 675.5,20.5 Z"/></g>
<g><path style="opacity:1" fill="#123d70" d="M 672.5,48.5 C 672.5,49.1667 672.5,49.8333 672.5,50.5C 575.472,146.528 479.139,243.194 383.5,340.5C 382.833,340.5 382.167,340.5 381.5,340.5C 477.806,242.528 574.806,145.194 672.5,48.5 Z"/></g>
<g><path style="opacity:1" fill="#113870" d="M 672.5,50.5 C 671.314,57.8035 670.314,65.1368 669.5,72.5C 668.5,75.1667 667.5,77.8333 666.5,80.5C 582.034,163.464 497.701,247.297 413.5,332C 414.094,332.464 414.761,332.631 415.5,332.5C 405.091,335.769 394.424,338.436 383.5,340.5C 479.139,243.194 575.472,146.528 672.5,50.5 Z"/></g>
<g><path style="opacity:1" fill="#2b649c" d="M 480.5,58.5 C 480.414,59.4959 480.748,60.3292 481.5,61C 458.299,84.3683 434.965,107.535 411.5,130.5C 411.5,128.833 411.5,127.167 411.5,125.5C 433.965,103.535 456.299,81.3683 478.5,59C 479.094,58.5357 479.761,58.369 480.5,58.5 Z"/></g>
<g><path style="opacity:1" fill="#265c9c" d="M 480.5,58.5 C 485.555,62.2315 488.555,67.2315 489.5,73.5C 463.5,99.1667 437.5,124.833 411.5,150.5C 411.5,143.833 411.5,137.167 411.5,130.5C 434.965,107.535 458.299,84.3683 481.5,61C 480.748,60.3292 480.414,59.4959 480.5,58.5 Z"/></g>
<g><path style="opacity:1" fill="#255c95" d="M 489.5,73.5 C 490.913,76.2186 491.58,79.2186 491.5,82.5C 490.883,82.3893 490.383,82.056 490,81.5C 463.965,107.702 437.799,133.702 411.5,159.5C 411.5,156.5 411.5,153.5 411.5,150.5C 437.5,124.833 463.5,99.1667 489.5,73.5 Z"/></g>
<g><path style="opacity:1" fill="#0c386a" d="M 666.5,80.5 C 666.483,82.5648 666.15,84.5648 665.5,86.5C 583.785,167.215 502.785,248.549 422.5,330.5C 420.485,331.924 418.152,332.59 415.5,332.5C 414.761,332.631 414.094,332.464 413.5,332C 497.701,247.297 582.034,163.464 666.5,80.5 Z"/></g>
<g><path style="opacity:1" fill="#3270b5" d="M 371.5,79.5 C 371.5,82.1667 371.5,84.8333 371.5,87.5C 352.868,105.632 334.368,123.965 316,142.5C 315.79,140.942 315.29,139.609 314.5,138.5C 314.5,137.5 314.5,136.5 314.5,135.5C 333.5,116.833 352.5,98.1667 371.5,79.5 Z"/></g>
<g><path style="opacity:1" fill="#245796" d="M 491.5,82.5 C 491.5,88.5 491.5,94.5 491.5,100.5C 464.833,126.833 438.167,153.167 411.5,179.5C 411.5,172.833 411.5,166.167 411.5,159.5C 437.799,133.702 463.965,107.702 490,81.5C 490.383,82.056 490.883,82.3893 491.5,82.5 Z"/></g>
<g><path style="opacity:1" fill="#3270af" d="M 371.5,87.5 C 371.5,94.5 371.5,101.5 371.5,108.5C 352.5,127.167 333.5,145.833 314.5,164.5C 314.5,155.833 314.5,147.167 314.5,138.5C 315.29,139.609 315.79,140.942 316,142.5C 334.368,123.965 352.868,105.632 371.5,87.5 Z"/></g>
<g><path style="opacity:1" fill="#0c326a" d="M 665.5,86.5 C 663.675,93.465 662.009,100.465 660.5,107.5C 659.167,110.5 657.833,113.5 656.5,116.5C 656.631,115.761 656.464,115.094 656,114.5C 587.833,182.667 519.667,250.833 451.5,319C 452.056,319.383 452.389,319.883 452.5,320.5C 442.921,324.804 432.921,328.138 422.5,330.5C 502.785,248.549 583.785,167.215 665.5,86.5 Z"/></g>
<g><path style="opacity:1" fill="#1a569b" d="M 669.5,72.5 C 670.833,74.5 672.5,76.1667 674.5,77.5C 673.117,89.8062 670.45,101.806 666.5,113.5C 664.167,111.833 662.167,109.833 660.5,107.5C 662.009,100.465 663.675,93.465 665.5,86.5C 666.15,84.5648 666.483,82.5648 666.5,80.5C 667.5,77.8333 668.5,75.1667 669.5,72.5 Z"/></g>
<g><path style="opacity:1" fill="#23568e" d="M 491.5,100.5 C 491.5,103.833 491.5,107.167 491.5,110.5C 465.535,135.965 439.701,161.632 414,187.5C 414.331,189.019 414.164,190.352 413.5,191.5C 412.407,187.606 411.74,183.606 411.5,179.5C 438.167,153.167 464.833,126.833 491.5,100.5 Z"/></g>
<g><path style="opacity:1" fill="#326aaf" d="M 371.5,108.5 C 371.5,111.167 371.5,113.833 371.5,116.5C 352.5,135.167 333.5,153.833 314.5,172.5C 314.5,169.833 314.5,167.167 314.5,164.5C 333.5,145.833 352.5,127.167 371.5,108.5 Z"/></g>
<g><path style="opacity:1" fill="#185094" d="M 660.5,107.5 C 662.167,109.833 664.167,111.833 666.5,113.5C 665.765,117.805 664.432,121.805 662.5,125.5C 659.757,123.761 657.757,121.427 656.5,118.5C 656.5,117.833 656.5,117.167 656.5,116.5C 657.833,113.5 659.167,110.5 660.5,107.5 Z"/></g>
<g><path style="opacity:1" fill="#1f518e" d="M 491.5,110.5 C 491.5,115.5 491.5,120.5 491.5,125.5C 467.035,149.465 442.701,173.632 418.5,198C 417.906,198.464 417.239,198.631 416.5,198.5C 414.935,196.491 413.935,194.157 413.5,191.5C 414.164,190.352 414.331,189.019 414,187.5C 439.701,161.632 465.535,135.965 491.5,110.5 Z"/></g>
<g><path style="opacity:1" fill="#0c3164" d="M 656.5,116.5 C 656.5,117.167 656.5,117.833 656.5,118.5C 655.542,120.302 654.875,122.302 654.5,124.5C 652.5,128.833 650.5,133.167 648.5,137.5C 591.868,193.632 535.368,249.965 479,306.5C 478.517,307.448 478.351,308.448 478.5,309.5C 470.069,313.715 461.402,317.382 452.5,320.5C 452.389,319.883 452.056,319.383 451.5,319C 519.667,250.833 587.833,182.667 656,114.5C 656.464,115.094 656.631,115.761 656.5,116.5 Z"/></g>
<g><path style="opacity:1" fill="#316aa7" d="M 371.5,116.5 C 371.5,123.5 371.5,130.5 371.5,137.5C 352.5,156.167 333.5,174.833 314.5,193.5C 314.5,186.5 314.5,179.5 314.5,172.5C 333.5,153.833 352.5,135.167 371.5,116.5 Z"/></g>
<g><path style="opacity:1" fill="#184f8d" d="M 656.5,118.5 C 657.757,121.427 659.757,123.761 662.5,125.5C 662.279,128.067 661.612,130.401 660.5,132.5C 657.313,130.656 655.313,127.989 654.5,124.5C 654.875,122.302 655.542,120.302 656.5,118.5 Z"/></g>
<g><path style="opacity:1" fill="#1f5089" d="M 491.5,125.5 C 491.5,130.167 491.5,134.833 491.5,139.5C 468.116,161.883 445.449,184.883 423.5,208.5C 419.693,206.225 417.359,202.892 416.5,198.5C 417.239,198.631 417.906,198.464 418.5,198C 442.701,173.632 467.035,149.465 491.5,125.5 Z"/></g>
<g><path style="opacity:1" fill="#144a89" d="M 654.5,124.5 C 655.313,127.989 657.313,130.656 660.5,132.5C 658.225,139.661 655.558,146.661 652.5,153.5C 649.167,152.167 646.833,149.833 645.5,146.5C 646.302,143.426 647.302,140.426 648.5,137.5C 650.5,133.167 652.5,128.833 654.5,124.5 Z"/></g>
<g><path style="opacity:1" fill="#2b64a8" d="M 371.5,137.5 C 371.5,138.833 371.5,140.167 371.5,141.5C 352.5,160.167 333.5,178.833 314.5,197.5C 314.5,196.167 314.5,194.833 314.5,193.5C 333.5,174.833 352.5,156.167 371.5,137.5 Z"/></g>
<g><path style="opacity:1" fill="#1e4a88" d="M 491.5,139.5 C 491.5,143.167 491.5,146.833 491.5,150.5C 470.116,170.884 449.449,191.884 429.5,213.5C 426.891,212.557 424.891,210.89 423.5,208.5C 445.449,184.883 468.116,161.883 491.5,139.5 Z"/></g>
<g><path style="opacity:1" fill="#2b64a2" d="M 371.5,141.5 C 371.5,149.833 371.5,158.167 371.5,166.5C 352.5,185.167 333.5,203.833 314.5,222.5C 314.5,214.167 314.5,205.833 314.5,197.5C 333.5,178.833 352.5,160.167 371.5,141.5 Z"/></g>
<g><path style="opacity:1" fill="#072b63" d="M 648.5,137.5 C 647.302,140.426 646.302,143.426 645.5,146.5C 641.983,153.035 638.65,159.702 635.5,166.5C 635.167,166.5 634.833,166.5 634.5,166.5C 634.631,165.761 634.464,165.094 634,164.5C 590.249,207.75 547.082,251.417 504.5,295.5C 496.187,300.659 487.52,305.326 478.5,309.5C 478.351,308.448 478.517,307.448 479,306.5C 535.368,249.965 591.868,193.632 648.5,137.5 Z"/></g>
<g><path style="opacity:1" fill="#114380" d="M 645.5,146.5 C 646.833,149.833 649.167,152.167 652.5,153.5C 649.949,160.933 646.615,167.933 642.5,174.5C 640.906,171.236 638.573,168.569 635.5,166.5C 638.65,159.702 641.983,153.035 645.5,146.5 Z"/></g>
<g><path style="opacity:1" fill="#194a83" d="M 491.5,150.5 C 491.5,158.167 491.5,165.833 491.5,173.5C 476.159,187.834 461.825,202.5 448.5,217.5C 448.5,217.833 448.5,218.167 448.5,218.5C 441.617,218.531 435.283,216.864 429.5,213.5C 449.449,191.884 470.116,170.884 491.5,150.5 Z"/></g>
<g><path style="opacity:1" fill="#062a5d" d="M 634.5,166.5 C 633.216,170.014 631.55,173.347 629.5,176.5C 627.693,179.382 626.026,182.382 624.5,185.5C 622.1,187.296 620.433,189.63 619.5,192.5C 615.205,196.401 611.872,201.068 609.5,206.5C 605.484,209.57 602.151,213.236 599.5,217.5C 591.756,223.739 584.422,230.572 577.5,238C 578.167,238.333 578.833,238.667 579.5,239C 576.797,242.038 573.797,244.705 570.5,247C 575.064,251.395 579.398,255.895 583.5,260.5C 578.5,266.167 573.167,271.5 567.5,276.5C 562.199,271.029 557.033,265.362 552,259.5C 551.667,260.5 551.333,261.5 551,262.5C 550.333,263.833 549.667,263.833 549,262.5C 546.715,265.432 544.215,268.098 541.5,270.5C 540.833,270.5 540.5,270.833 540.5,271.5C 539.833,271.5 539.5,271.833 539.5,272.5C 538.833,272.5 538.5,272.833 538.5,273.5C 537.833,273.5 537.5,273.833 537.5,274.5C 537.5,275.167 537.167,275.5 536.5,275.5C 536.167,274.167 535.833,274.167 535.5,275.5C 534.833,275.5 534.5,275.833 534.5,276.5C 533.833,276.5 533.5,276.833 533.5,277.5C 524.029,283.74 514.362,289.74 504.5,295.5C 547.082,251.417 590.249,207.75 634,164.5C 634.464,165.094 634.631,165.761 634.5,166.5 Z"/></g>
<g><path style="opacity:1" fill="#2b649c" d="M 371.5,166.5 C 371.5,168.167 371.5,169.833 371.5,171.5C 352.868,189.632 334.368,207.965 316,226.5C 315.809,228.708 315.309,230.708 314.5,232.5C 314.5,229.167 314.5,225.833 314.5,222.5C 333.5,203.833 352.5,185.167 371.5,166.5 Z"/></g>
<g><path style="opacity:1" fill="#113d7c" d="M 634.5,166.5 C 634.833,166.5 635.167,166.5 635.5,166.5C 638.573,168.569 640.906,171.236 642.5,174.5C 641.088,178.321 639.422,181.987 637.5,185.5C 634.097,183.1 631.43,180.1 629.5,176.5C 631.55,173.347 633.216,170.014 634.5,166.5 Z"/></g>
<g><path style="opacity:1" fill="#194383" d="M 491.5,173.5 C 491.5,174.167 491.5,174.833 491.5,175.5C 477.167,189.5 462.833,203.5 448.5,217.5C 461.825,202.5 476.159,187.834 491.5,173.5 Z"/></g>
<g><path style="opacity:1" fill="#18447c" d="M 491.5,175.5 C 491.394,204.273 477.061,218.606 448.5,218.5C 448.5,218.167 448.5,217.833 448.5,217.5C 462.833,203.5 477.167,189.5 491.5,175.5 Z"/></g>
<g><path style="opacity:1" fill="#0b3d75" d="M 629.5,176.5 C 631.43,180.1 634.097,183.1 637.5,185.5C 636.066,188.047 634.4,190.381 632.5,192.5C 629.236,190.906 626.569,188.573 624.5,185.5C 626.026,182.382 627.693,179.382 629.5,176.5 Z"/></g>
<g><path style="opacity:1" fill="#265d9b" d="M 371.5,171.5 C 371.767,177.838 372.1,184.171 372.5,190.5C 353.167,209.5 333.833,228.5 314.5,247.5C 314.5,242.5 314.5,237.5 314.5,232.5C 315.309,230.708 315.809,228.708 316,226.5C 334.368,207.965 352.868,189.632 371.5,171.5 Z"/></g>
<g><path style="opacity:1" fill="#0b3775" d="M 624.5,185.5 C 626.569,188.573 629.236,190.906 632.5,192.5C 631.617,195.704 629.95,198.371 627.5,200.5C 624.5,198.167 621.833,195.5 619.5,192.5C 620.433,189.63 622.1,187.296 624.5,185.5 Z"/></g>
<g><path style="opacity:1" fill="#255c96" d="M 372.5,190.5 C 373.407,192.657 374.073,194.99 374.5,197.5C 354.868,216.632 335.368,235.965 316,255.5C 315.809,257.708 315.309,259.708 314.5,261.5C 314.5,256.833 314.5,252.167 314.5,247.5C 333.833,228.5 353.167,209.5 372.5,190.5 Z"/></g>
<g><path style="opacity:1" fill="#0b376f" d="M 619.5,192.5 C 621.833,195.5 624.5,198.167 627.5,200.5C 627.443,201.609 627.11,202.609 626.5,203.5C 623.833,207.5 621.167,211.5 618.5,215.5C 615.194,212.86 612.194,209.86 609.5,206.5C 611.872,201.068 615.205,196.401 619.5,192.5 Z"/></g>
<g><path style="opacity:1" fill="#255795" d="M 374.5,197.5 C 376.306,202.446 378.639,207.112 381.5,211.5C 359.251,232.247 337.418,253.58 316,275.5C 315.768,274.263 315.268,273.263 314.5,272.5C 314.5,268.833 314.5,265.167 314.5,261.5C 315.309,259.708 315.809,257.708 316,255.5C 335.368,235.965 354.868,216.632 374.5,197.5 Z"/></g>
<g><path style="opacity:1" fill="#05255c" d="M 626.5,203.5 C 629.462,206.964 632.629,210.297 636,213.5C 635.669,215.019 635.836,216.352 636.5,217.5C 632.988,224.534 628.988,231.201 624.5,237.5C 620.773,233.767 616.773,230.434 612.5,227.5C 612.5,227.167 612.5,226.833 612.5,226.5C 613.167,226.5 613.5,226.167 613.5,225.5C 615.048,225.179 615.715,224.179 615.5,222.5C 615.5,222.167 615.5,221.833 615.5,221.5C 616.167,221.5 616.5,221.167 616.5,220.5C 616.5,220.167 616.5,219.833 616.5,219.5C 617.167,219.5 617.5,219.167 617.5,218.5C 618.11,217.609 618.443,216.609 618.5,215.5C 621.167,211.5 623.833,207.5 626.5,203.5 Z"/></g>
<g><path style="opacity:1" fill="#0b316a" d="M 609.5,206.5 C 612.194,209.86 615.194,212.86 618.5,215.5C 618.443,216.609 618.11,217.609 617.5,218.5C 616.833,218.5 616.5,218.833 616.5,219.5C 616.5,219.833 616.5,220.167 616.5,220.5C 615.833,220.5 615.5,220.833 615.5,221.5C 614.167,221.833 614.167,222.167 615.5,222.5C 615.715,224.179 615.048,225.179 613.5,225.5C 612.794,224.443 612.461,224.776 612.5,226.5C 608.79,230.208 605.457,234.208 602.5,238.5C 602.33,237.178 602.663,236.011 603.5,235C 600.297,231.629 596.964,228.462 593.5,225.5C 595.5,222.833 597.5,220.167 599.5,217.5C 602.151,213.236 605.484,209.57 609.5,206.5 Z"/></g>
<g><path style="opacity:1" fill="#23568f" d="M 381.5,211.5 C 382.833,212.167 383.833,213.167 384.5,214.5C 384.058,215.231 383.891,216.231 384,217.5C 361.333,240.167 338.667,262.833 316,285.5C 315.802,287.382 315.302,289.048 314.5,290.5C 314.5,284.5 314.5,278.5 314.5,272.5C 315.268,273.263 315.768,274.263 316,275.5C 337.418,253.58 359.251,232.247 381.5,211.5 Z"/></g>
<g><path style="opacity:1" fill="#1e508e" d="M 384.5,214.5 C 387.526,217.195 390.526,219.862 393.5,222.5C 367.868,248.632 342.035,274.632 316,300.5C 315.79,298.942 315.29,297.609 314.5,296.5C 314.5,294.5 314.5,292.5 314.5,290.5C 315.302,289.048 315.802,287.382 316,285.5C 338.667,262.833 361.333,240.167 384,217.5C 383.891,216.231 384.058,215.231 384.5,214.5 Z"/></g>
<g><path style="opacity:1" fill="#1e5089" d="M 393.5,222.5 C 396.669,223.917 399.669,225.583 402.5,227.5C 373.868,256.632 345.035,285.632 316,314.5C 315.802,316.382 315.302,318.048 314.5,319.5C 314.5,311.833 314.5,304.167 314.5,296.5C 315.29,297.609 315.79,298.942 316,300.5C 342.035,274.632 367.868,248.632 393.5,222.5 Z"/></g>
<g><path style="opacity:1" fill="#063164" d="M 593.5,225.5 C 596.964,228.462 600.297,231.629 603.5,235C 602.663,236.011 602.33,237.178 602.5,238.5C 600.823,240.54 599.156,242.54 597.5,244.5C 593.521,241.188 589.854,237.521 586.5,233.5C 587.568,230.293 589.901,227.626 593.5,225.5 Z"/></g>
<g><path style="opacity:1" fill="#1e4b88" d="M 402.5,227.5 C 403.791,227.263 404.791,227.596 405.5,228.5C 406.842,229.793 408.509,230.626 410.5,231C 379,262.5 347.5,294 316,325.5C 315.79,323.942 315.29,322.609 314.5,321.5C 314.5,320.833 314.5,320.167 314.5,319.5C 315.302,318.048 315.802,316.382 316,314.5C 345.035,285.632 373.868,256.632 402.5,227.5 Z"/></g>
<g><path style="opacity:1" fill="#062a5c" d="M 612.5,227.5 C 616.773,230.434 620.773,233.767 624.5,237.5C 618.91,247.688 612.576,257.355 605.5,266.5C 602.195,262.859 598.862,259.192 595.5,255.5C 601.155,246.194 606.822,236.861 612.5,227.5 Z"/></g>
<g><path style="opacity:1" fill="#183e7d" d="M 466.5,228.5 C 428.548,267.119 390.215,305.452 351.5,343.5C 387.295,306.2 423.961,269.034 461.5,232C 460.944,231.617 460.611,231.117 460.5,230.5C 462.214,229.262 464.214,228.595 466.5,228.5 Z"/></g>
<g><path style="opacity:1" fill="#19437d" d="M 708.5,236.5 C 708.5,238.5 708.5,240.5 708.5,242.5C 654.139,295.861 600.472,349.861 547.5,404.5C 545.5,404.5 543.5,404.5 541.5,404.5C 539.302,403.835 536.969,403.168 534.5,402.5C 591.82,344.68 649.32,287.014 707,229.5C 707.186,232.036 707.686,234.369 708.5,236.5 Z"/></g>
<g><path style="opacity:1" fill="#194a82" d="M 405.5,228.5 C 415.306,231.245 425.306,232.912 435.5,233.5C 434.432,234.434 433.099,234.768 431.5,234.5C 393.549,270.784 356.216,307.784 319.5,345.5C 319.5,345.833 319.5,346.167 319.5,346.5C 317.833,346.5 316.167,346.5 314.5,346.5C 314.5,338.167 314.5,329.833 314.5,321.5C 315.29,322.609 315.79,323.942 316,325.5C 347.5,294 379,262.5 410.5,231C 408.509,230.626 406.842,229.793 405.5,228.5 Z"/></g>
<g><path style="opacity:1" fill="#18447d" d="M 460.5,230.5 C 460.611,231.117 460.944,231.617 461.5,232C 423.961,269.034 387.295,306.2 351.5,343.5C 351.5,343.833 351.5,344.167 351.5,344.5C 341.046,346.143 330.379,346.81 319.5,346.5C 319.5,346.167 319.5,345.833 319.5,345.5C 357.451,309.216 394.784,272.216 431.5,234.5C 433.099,234.768 434.432,234.434 435.5,233.5C 443.931,233.238 452.264,232.238 460.5,230.5 Z"/></g>
<g><path style="opacity:1" fill="#062a62" d="M 599.5,217.5 C 597.5,220.167 595.5,222.833 593.5,225.5C 589.901,227.626 587.568,230.293 586.5,233.5C 589.854,237.521 593.521,241.188 597.5,244.5C 593.177,250.155 588.51,255.488 583.5,260.5C 579.398,255.895 575.064,251.395 570.5,247C 573.797,244.705 576.797,242.038 579.5,239C 578.833,238.667 578.167,238.333 577.5,238C 584.422,230.572 591.756,223.739 599.5,217.5 Z"/></g>
<g><path style="opacity:1" fill="#194383" d="M 431.5,234.5 C 394.784,272.216 357.451,309.216 319.5,345.5C 356.216,307.784 393.549,270.784 431.5,234.5 Z"/></g>
<g><path style="opacity:1" fill="#194476" d="M 708.5,242.5 C 708.5,244.833 708.5,247.167 708.5,249.5C 657.035,300.465 605.701,351.632 554.5,403C 561.826,403.5 569.159,403.666 576.5,403.5C 576.5,403.833 576.5,404.167 576.5,404.5C 566.833,404.5 557.167,404.5 547.5,404.5C 600.472,349.861 654.139,295.861 708.5,242.5 Z"/></g>
<g><path style="opacity:1" fill="#193d76" d="M 708.5,249.5 C 708.5,256.833 708.5,264.167 708.5,271.5C 664.14,315.194 620.14,359.194 576.5,403.5C 569.159,403.666 561.826,403.5 554.5,403C 605.701,351.632 657.035,300.465 708.5,249.5 Z"/></g>
<g><path style="opacity:1" fill="#062b63" d="M 595.5,255.5 C 598.862,259.192 602.195,262.859 605.5,266.5C 601.475,272.185 597.475,277.851 593.5,283.5C 592.833,283.5 592.5,283.833 592.5,284.5C 591.833,284.5 591.5,284.833 591.5,285.5C 590.833,285.5 590.5,285.833 590.5,286.5C 589.833,286.5 589.5,286.833 589.5,287.5C 589.5,288.167 589.167,288.5 588.5,288.5C 584.864,286.42 581.364,283.42 578,279.5C 577.583,280.756 576.75,281.423 575.5,281.5C 581.815,272.524 588.481,263.857 595.5,255.5 Z"/></g>
<g><path style="opacity:1" fill="#06255c" d="M 567.5,276.5 C 564.126,280.876 560.126,284.542 555.5,287.5C 550.167,282.833 545.167,277.833 540.5,272.5C 540.5,272.167 540.5,271.833 540.5,271.5C 541.167,271.5 541.5,271.167 541.5,270.5C 544.215,268.098 546.715,265.432 549,262.5C 549.667,263.833 550.333,263.833 551,262.5C 551.333,261.5 551.667,260.5 552,259.5C 557.033,265.362 562.199,271.029 567.5,276.5 Z"/></g>
<g><path style="opacity:1" fill="#173e70" d="M 708.5,271.5 C 708.5,275.167 708.5,278.833 708.5,282.5C 668.035,322.465 627.701,362.632 587.5,403C 591.025,403.179 594.359,403.679 597.5,404.5C 590.5,404.5 583.5,404.5 576.5,404.5C 576.5,404.167 576.5,403.833 576.5,403.5C 620.14,359.194 664.14,315.194 708.5,271.5 Z"/></g>
<g><path style="opacity:1" fill="#052556" d="M 539.5,272.5 C 539.833,272.5 540.167,272.5 540.5,272.5C 545.167,277.833 550.167,282.833 555.5,287.5C 503.465,332.844 443.132,361.677 374.5,374C 354.681,377.847 334.681,379.681 314.5,379.5C 314.5,373.833 314.5,368.167 314.5,362.5C 398.752,362.21 471.752,333.877 533.5,277.5C 534.167,277.5 534.5,277.167 534.5,276.5C 535.167,276.5 535.5,276.167 535.5,275.5C 535.833,275.5 536.167,275.5 536.5,275.5C 537.167,275.5 537.5,275.167 537.5,274.5C 538.167,274.5 538.5,274.167 538.5,273.5C 539.167,273.5 539.5,273.167 539.5,272.5 Z"/></g>
<g><path style="opacity:1" fill="#063264" d="M 588.5,288.5 C 584.176,293.125 579.843,297.792 575.5,302.5C 573.612,299.101 571.112,296.101 568,293.5C 567.517,292.552 567.351,291.552 567.5,290.5C 569.472,286.895 572.139,283.895 575.5,281.5C 576.75,281.423 577.583,280.756 578,279.5C 581.364,283.42 584.864,286.42 588.5,288.5 Z"/></g>
<g><path style="opacity:1" fill="#123770" d="M 708.5,282.5 C 708.5,288.167 708.5,293.833 708.5,299.5C 673.701,333.799 639.035,368.299 604.5,403C 609.489,403.499 614.489,403.666 619.5,403.5C 619.5,403.833 619.5,404.167 619.5,404.5C 612.167,404.5 604.833,404.5 597.5,404.5C 594.359,403.679 591.025,403.179 587.5,403C 627.701,362.632 668.035,322.465 708.5,282.5 Z"/></g>
<g><path style="opacity:1" fill="#0c326a" d="M 567.5,290.5 C 567.351,291.552 567.517,292.552 568,293.5C 571.112,296.101 573.612,299.101 575.5,302.5C 569.072,310.432 562.072,317.932 554.5,325C 553.906,325.464 553.239,325.631 552.5,325.5C 548.537,322.871 544.871,319.871 541.5,316.5C 550.5,308.167 559.167,299.5 567.5,290.5 Z"/></g>
<g><path style="opacity:1" fill="#12376a" d="M 708.5,299.5 C 708.5,304.5 708.5,309.5 708.5,314.5C 678.473,343.86 648.806,373.527 619.5,403.5C 614.489,403.666 609.489,403.499 604.5,403C 639.035,368.299 673.701,333.799 708.5,299.5 Z"/></g>
<g><path style="opacity:1" fill="#0c376f" d="M 541.5,316.5 C 544.871,319.871 548.537,322.871 552.5,325.5C 546.603,331.784 539.936,337.117 532.5,341.5C 528.766,338.769 525.766,335.436 523.5,331.5C 529.091,326.034 535.091,321.034 541.5,316.5 Z"/></g>
<g><path style="opacity:1" fill="#0e326a" d="M 708.5,314.5 C 708.5,319.5 708.5,324.5 708.5,329.5C 683.238,353.095 658.571,377.428 634.5,402.5C 637.642,403.167 640.642,403.834 643.5,404.5C 635.5,404.5 627.5,404.5 619.5,404.5C 619.5,404.167 619.5,403.833 619.5,403.5C 648.806,373.527 678.473,343.86 708.5,314.5 Z"/></g>
<g><path style="opacity:1" fill="#0c3164" d="M 708.5,329.5 C 708.5,338.833 708.5,348.167 708.5,357.5C 707.698,356.048 707.198,354.382 707,352.5C 690.5,369 674,385.5 657.5,402C 659.382,402.198 661.048,402.698 662.5,403.5C 658.629,403.185 654.962,403.518 651.5,404.5C 648.833,404.5 646.167,404.5 643.5,404.5C 640.642,403.834 637.642,403.167 634.5,402.5C 658.571,377.428 683.238,353.095 708.5,329.5 Z"/></g>
<g><path style="opacity:1" fill="#0c3876" d="M 523.5,331.5 C 525.766,335.436 528.766,338.769 532.5,341.5C 530.833,342.5 529.5,343.833 528.5,345.5C 528.565,345.062 528.399,344.728 528,344.5C 526,345.833 524,347.167 522,348.5C 518.964,345.296 515.797,342.296 512.5,339.5C 515.952,336.601 519.618,333.934 523.5,331.5 Z"/></g>
<g><path style="opacity:1" fill="#0d3d76" d="M 512.5,339.5 C 515.797,342.296 518.964,345.296 522,348.5C 524,347.167 526,345.833 528,344.5C 528.399,344.728 528.565,345.062 528.5,345.5C 523.033,349.071 517.367,352.404 511.5,355.5C 508.437,353.949 505.771,351.782 503.5,349C 501.981,349.331 500.648,349.164 499.5,348.5C 503.535,345.143 507.868,342.143 512.5,339.5 Z"/></g>
<g><path style="opacity:1" fill="#113d7d" d="M 499.5,348.5 C 500.648,349.164 501.981,349.331 503.5,349C 505.771,351.782 508.437,353.949 511.5,355.5C 505.84,358.997 499.84,361.997 493.5,364.5C 490.431,362.097 487.764,359.431 485.5,356.5C 490.194,353.821 494.861,351.155 499.5,348.5 Z"/></g>
<g><path style="opacity:1" fill="#0b2b64" d="M 708.5,357.5 C 708.5,360.833 708.5,364.167 708.5,367.5C 707.71,366.391 707.21,365.058 707,363.5C 694.167,376.333 681.333,389.167 668.5,402C 666.414,402.315 664.414,402.815 662.5,403.5C 661.048,402.698 659.382,402.198 657.5,402C 674,385.5 690.5,369 707,352.5C 707.198,354.382 707.698,356.048 708.5,357.5 Z"/></g>
<g><path style="opacity:1" fill="#124383" d="M 478.5,360.5 C 480.578,363.084 482.912,365.584 485.5,368C 478.876,372.04 471.876,375.206 464.5,377.5C 463.04,375.537 461.373,373.704 459.5,372C 460.252,371.329 460.586,370.496 460.5,369.5C 466.779,367.027 472.779,364.027 478.5,360.5 Z"/></g>
<g><path style="opacity:1" fill="#062a5c" d="M 708.5,367.5 C 708.5,374.833 708.5,382.167 708.5,389.5C 707.698,388.048 707.198,386.382 707,384.5C 701.167,390.333 695.333,396.167 689.5,402C 693.122,403.106 696.789,403.439 700.5,403C 699.167,402.667 697.833,402.333 696.5,402C 700,398.5 703.5,395 707,391.5C 707.21,393.058 707.71,394.391 708.5,395.5C 708.5,398.5 708.5,401.5 708.5,404.5C 689.5,404.5 670.5,404.5 651.5,404.5C 654.962,403.518 658.629,403.185 662.5,403.5C 664.414,402.815 666.414,402.315 668.5,402C 681.333,389.167 694.167,376.333 707,363.5C 707.21,365.058 707.71,366.391 708.5,367.5 Z"/></g>
<g><path style="opacity:1" fill="#154b8a" d="M 460.5,369.5 C 460.586,370.496 460.252,371.329 459.5,372C 461.373,373.704 463.04,375.537 464.5,377.5C 459.016,379.71 453.516,382.043 448,384.5C 447.667,384.167 447.333,383.833 447,383.5C 439.809,385.787 432.642,388.287 425.5,391C 418.589,392.978 411.589,394.478 404.5,395.5C 409.984,393.536 415.65,391.703 421.5,390C 420.177,389.184 419.511,388.017 419.5,386.5C 433.338,381.437 447.005,375.771 460.5,369.5 Z"/></g>
<g><path style="opacity:1" fill="#06245d" d="M 708.5,389.5 C 708.5,391.5 708.5,393.5 708.5,395.5C 707.71,394.391 707.21,393.058 707,391.5C 703.5,395 700,398.5 696.5,402C 697.833,402.333 699.167,402.667 700.5,403C 696.789,403.439 693.122,403.106 689.5,402C 695.333,396.167 701.167,390.333 707,384.5C 707.198,386.382 707.698,388.048 708.5,389.5 Z"/></g>
<g><path style="opacity:1" fill="#1a5599" d="M 419.5,386.5 C 419.511,388.017 420.177,389.184 421.5,390C 415.65,391.703 409.984,393.536 404.5,395.5C 403.352,394.105 402.352,394.272 401.5,396C 383.73,398.897 366.064,401.73 348.5,404.5C 345.428,404.817 342.428,404.484 339.5,403.5C 366.532,399.627 393.199,393.96 419.5,386.5 Z"/></g>
<g><path style="opacity:1" fill="#0b2b63" d="M 546.5,459.5 C 556.653,459.092 566.653,460.092 576.5,462.5C 576.831,470.528 576.498,478.528 575.5,486.5C 571.609,478.547 566.609,471.38 560.5,465C 552.587,461.299 546.087,463.132 541,470.5C 534.083,484.344 533.749,498.344 540,512.5C 545.928,521.147 554.095,524.314 564.5,522C 570.43,520.078 575.263,516.578 579,511.5C 575.201,530.018 563.701,538.185 544.5,536C 525.709,531.308 516.376,519.141 516.5,499.5C 517.829,479.453 527.829,466.12 546.5,459.5 Z"/></g>
<g><path style="opacity:1" fill="#0b2b63" d="M 707.5,458.5 C 708.79,459.058 709.623,460.058 710,461.5C 719.333,482.833 728.667,504.167 738,525.5C 740.006,528.672 742.506,531.338 745.5,533.5C 734.167,534.833 722.833,534.833 711.5,533.5C 712.945,531.937 714.611,530.604 716.5,529.5C 716.987,528.554 717.32,527.554 717.5,526.5C 716.281,522.395 714.781,518.395 713,514.5C 704.579,513.351 696.079,513.184 687.5,514C 685.833,517.667 684.167,521.333 682.5,525C 683.998,528.996 686.665,531.83 690.5,533.5C 683.833,534.833 677.167,534.833 670.5,533.5C 674.542,530.622 677.709,526.955 680,522.5C 689.076,501.096 698.243,479.763 707.5,458.5 Z M 699.5,484.5 C 703.531,492.229 707.198,500.229 710.5,508.5C 703.5,509.833 696.5,509.833 689.5,508.5C 693.398,500.708 696.731,492.708 699.5,484.5 Z"/></g>
<g><path style="opacity:1" fill="#0b2b63" d="M 857.5,459.5 C 867.656,459.093 877.656,460.093 887.5,462.5C 887.831,470.528 887.498,478.528 886.5,486.5C 883.101,478.198 878.101,471.031 871.5,465C 861.646,461.424 854.479,464.591 850,474.5C 843.876,490.148 845.71,504.648 855.5,518C 868.91,525.664 880.41,523.497 890,511.5C 887.316,527.339 877.816,535.672 861.5,536.5C 844.258,535.801 833.425,527.134 829,510.5C 824.563,485.349 834.063,468.349 857.5,459.5 Z"/></g>
<g><path style="opacity:1" fill="#0b2b63" d="M 62.5,460.5 C 72.8333,460.5 83.1667,460.5 93.5,460.5C 91.9648,463.232 90.1315,465.898 88,468.5C 87.3333,484.833 87.3333,501.167 88,517.5C 90.1999,526.367 95.8666,530.7 105,530.5C 113.195,530.304 118.528,526.304 121,518.5C 121.667,502.833 121.667,487.167 121,471.5C 119.352,467.392 117.186,463.726 114.5,460.5C 120.167,460.5 125.833,460.5 131.5,460.5C 128.814,463.726 126.648,467.392 125,471.5C 124.667,487.167 124.333,502.833 124,518.5C 122.958,525.755 119.125,530.921 112.5,534C 100.92,537.646 89.5867,536.98 78.5,532C 74.2115,529.708 71.3782,526.208 70,521.5C 68.7205,503.552 68.0539,485.552 68,467.5C 65.4971,465.52 63.6638,463.187 62.5,460.5 Z"/></g>
<g><path style="opacity:1" fill="#0b2b63" d="M 198.5,503.5 C 198.56,504.043 198.893,504.376 199.5,504.5C 200.823,493.674 200.823,483.007 199.5,472.5C 197.913,467.948 195.58,463.948 192.5,460.5C 198.167,460.5 203.833,460.5 209.5,460.5C 206.178,464.476 203.845,469.143 202.5,474.5C 201.822,494.402 201.155,514.402 200.5,534.5C 183.864,514.355 167.364,494.022 151,473.5C 150.333,490.5 150.333,507.5 151,524.5C 152.556,527.898 154.723,530.898 157.5,533.5C 151.833,534.833 146.167,534.833 140.5,533.5C 144.673,530.153 147.007,525.82 147.5,520.5C 148.166,512.007 148.5,503.34 148.5,494.5C 148.498,485.473 147.831,476.807 146.5,468.5C 145.188,466.521 143.521,464.855 141.5,463.5C 140.614,462.675 140.281,461.675 140.5,460.5C 148.86,460.169 157.193,460.502 165.5,461.5C 176.524,475.519 187.524,489.519 198.5,503.5 Z"/></g>
<g><path style="opacity:1" fill="#0b2b63" d="M 218.5,460.5 C 228.833,460.5 239.167,460.5 249.5,460.5C 248.336,463.187 246.503,465.52 244,467.5C 243.333,487.5 243.333,507.5 244,527.5C 245.309,529.976 247.142,531.976 249.5,533.5C 239.167,534.833 228.833,534.833 218.5,533.5C 221.253,531.911 223.086,529.578 224,526.5C 224.667,507.167 224.667,487.833 224,468.5C 221.869,465.898 220.035,463.232 218.5,460.5 Z"/></g>
<g><path style="opacity:1" fill="#0b2b63" d="M 259.5,460.5 C 281.169,460.333 302.836,460.5 324.5,461C 325.201,467.956 325.868,474.956 326.5,482C 326.167,482.5 325.833,483 325.5,483.5C 322.804,477.639 319.138,472.472 314.5,468C 310.515,465.505 306.182,464.338 301.5,464.5C 301.333,485.503 301.5,506.503 302,527.5C 303.337,530.002 305.171,532.002 307.5,533.5C 297.167,534.833 286.833,534.833 276.5,533.5C 278.829,532.002 280.663,530.002 282,527.5C 282.5,506.503 282.667,485.503 282.5,464.5C 277.818,464.338 273.485,465.505 269.5,468C 265.134,472.561 261.634,477.728 259,483.5C 258.309,475.805 258.475,468.139 259.5,460.5 Z"/></g>
<g><path style="opacity:1" fill="#0b2b63" d="M 329.5,460.5 C 348.5,460.5 367.5,460.5 386.5,460.5C 386.831,467.863 386.497,475.197 385.5,482.5C 379.911,468.533 369.578,462.533 354.5,464.5C 354.5,474.5 354.5,484.5 354.5,494.5C 363.514,494.822 369.848,490.822 373.5,482.5C 374.833,492.167 374.833,501.833 373.5,511.5C 370.038,502.938 363.705,498.605 354.5,498.5C 354.051,508.605 354.551,518.605 356,528.5C 366.691,533.41 375.691,531.076 383,521.5C 384.912,517.34 387.079,513.34 389.5,509.5C 389.833,510.333 390.167,511.167 390.5,512C 389.668,519.487 389.001,526.987 388.5,534.5C 368.822,534.833 349.155,534.5 329.5,533.5C 331.858,531.976 333.691,529.976 335,527.5C 335.667,507.5 335.667,487.5 335,467.5C 333.972,465.639 332.472,464.305 330.5,463.5C 329.614,462.675 329.281,461.675 329.5,460.5 Z"/></g>
<g><path style="opacity:1" fill="#0b2b63" d="M 397.5,460.5 C 412.207,460.127 426.873,460.627 441.5,462C 454.459,464.958 462.959,472.791 467,485.5C 471.239,501.669 467.406,515.503 455.5,527C 450.655,530.422 445.322,532.755 439.5,534C 425.488,534.833 411.488,534.666 397.5,533.5C 400.224,531.934 402.058,529.601 403,526.5C 403.667,507.5 403.667,488.5 403,469.5C 401.288,466.318 399.455,463.318 397.5,460.5 Z M 422.5,464.5 C 432.839,463.586 440.006,467.92 444,477.5C 448.202,491.08 448.536,504.747 445,518.5C 441.093,529.454 433.759,533.121 423,529.5C 422.5,507.836 422.333,486.169 422.5,464.5 Z"/></g>
<g><path style="opacity:1" fill="#0b2b63" d="M 588.5,460.5 C 598.833,460.5 609.167,460.5 619.5,460.5C 617.965,463.232 616.131,465.898 614,468.5C 613.5,477.16 613.334,485.827 613.5,494.5C 622.167,494.5 630.833,494.5 639.5,494.5C 639.666,486.493 639.5,478.493 639,470.5C 638.545,467.243 636.879,464.909 634,463.5C 633.517,462.552 633.351,461.552 633.5,460.5C 643.5,460.5 653.5,460.5 663.5,460.5C 663.723,463.114 662.556,464.781 660,465.5C 659.138,467.087 658.471,468.754 658,470.5C 657.333,488.833 657.333,507.167 658,525.5C 659.218,528.558 661.051,531.224 663.5,533.5C 653.5,534.833 643.5,534.833 633.5,533.5C 635.949,531.224 637.782,528.558 639,525.5C 639.5,516.506 639.666,507.506 639.5,498.5C 630.833,498.5 622.167,498.5 613.5,498.5C 613.334,507.839 613.5,517.173 614,526.5C 614.914,529.578 616.747,531.911 619.5,533.5C 609.167,534.833 598.833,534.833 588.5,533.5C 590.829,532.002 592.663,530.002 594,527.5C 594.667,507.5 594.667,487.5 594,467.5C 591.497,465.52 589.664,463.187 588.5,460.5 Z"/></g>
<g><path style="opacity:1" fill="#0b2b63" d="M 751.5,460.5 C 759.507,460.334 767.507,460.5 775.5,461C 787.361,475.227 798.861,489.727 810,504.5C 810.667,494.5 810.667,484.5 810,474.5C 809.885,469.601 807.719,465.935 803.5,463.5C 802.614,462.675 802.281,461.675 802.5,460.5C 808.5,460.5 814.5,460.5 820.5,460.5C 819.336,463.187 817.503,465.52 815,467.5C 814.178,469.788 813.511,472.122 813,474.5C 812.667,495.167 812.333,515.833 812,536.5C 795,515.5 778,494.5 761,473.5C 760.333,489.833 760.333,506.167 761,522.5C 761.697,527.032 763.864,530.698 767.5,533.5C 761.833,534.833 756.167,534.833 750.5,533.5C 753.553,531.608 755.719,528.942 757,525.5C 757.667,506.5 757.667,487.5 757,468.5C 756,466.167 754.333,464.5 752,463.5C 751.517,462.552 751.351,461.552 751.5,460.5 Z"/></g>
<g><path style="opacity:1" fill="#0b2b63" d="M 899.5,460.5 C 918.5,460.5 937.5,460.5 956.5,460.5C 956.831,467.863 956.497,475.197 955.5,482.5C 952.566,476.442 948.566,471.276 943.5,467C 937.364,464.822 931.031,463.988 924.5,464.5C 924.5,474.5 924.5,484.5 924.5,494.5C 933.853,495.322 940.187,491.322 943.5,482.5C 944.833,492.167 944.833,501.833 943.5,511.5C 940.001,502.924 933.668,498.591 924.5,498.5C 924.051,508.605 924.551,518.605 926,528.5C 936.691,533.41 945.691,531.076 953,521.5C 955.435,517.628 957.602,513.628 959.5,509.5C 959.833,510.5 960.167,511.5 960.5,512.5C 959.738,519.83 959.072,527.163 958.5,534.5C 938.822,534.833 919.155,534.5 899.5,533.5C 901.483,532.018 903.316,530.351 905,528.5C 905.667,508.167 905.667,487.833 905,467.5C 904.241,465.365 902.741,464.032 900.5,463.5C 899.614,462.675 899.281,461.675 899.5,460.5 Z"/></g>
<g><path style="opacity:1" fill="#0b3163" d="M 146.5,468.5 C 147.831,476.807 148.498,485.473 148.5,494.5C 148.5,503.34 148.166,512.007 147.5,520.5C 147.819,503.09 147.485,485.756 146.5,468.5 Z"/></g>
<g><path style="opacity:1" fill="#0c3163" d="M 199.5,472.5 C 200.823,483.007 200.823,493.674 199.5,504.5C 198.893,504.376 198.56,504.043 198.5,503.5C 199.494,493.347 199.828,483.014 199.5,472.5 Z"/></g>
<g><path style="opacity:1" fill="#0c3163" d="M 202.5,474.5 C 202.667,495.169 202.5,515.836 202,536.5C 201.283,535.956 200.783,535.289 200.5,534.5C 201.155,514.402 201.822,494.402 202.5,474.5 Z"/></g>
</svg>
