<?xml version="1.0" encoding="UTF-8"?>
<!DOCTYPE svg PUBLIC "-//W3C//DTD SVG 1.1//EN" "http://www.w3.org/Graphics/SVG/1.1/DTD/svg11.dtd">
<svg xmlns="http://www.w3.org/2000/svg" version="1.1" width="150px" height="85px" style="shape-rendering:geometricPrecision; text-rendering:geometricPrecision; image-rendering:optimizeQuality; fill-rule:evenodd; clip-rule:evenodd" xmlns:xlink="http://www.w3.org/1999/xlink">
<g><path style="opacity:1" fill="#326eb1" d="M 65.5,4.5 C 66.8333,4.5 68.1667,4.5 69.5,4.5C 66.7069,8.58482 63.3736,12.2515 59.5,15.5C 58.4479,13.744 56.7812,13.0773 54.5,13.5C 54.3893,12.8826 54.056,12.3826 53.5,12C 55.1667,11.6667 56.8333,11.3333 58.5,11C 60.7293,8.59966 63.0626,6.433 65.5,4.5 Z"/></g>
<g><path style="opacity:1" fill="#2b65a2" d="M 69.5,4.5 C 74.1667,4.5 78.8333,4.5 83.5,4.5C 82.7095,5.40128 81.7095,6.06795 80.5,6.5C 79.2918,5.21798 77.9584,5.21798 76.5,6.5C 71.1998,12.4669 65.5331,18.1335 59.5,23.5C 59.5,20.8333 59.5,18.1667 59.5,15.5C 63.3736,12.2515 66.7069,8.58482 69.5,4.5 Z"/></g>
<g><path style="opacity:1" fill="#235592" d="M 83.5,4.5 C 84.8333,4.5 86.1667,4.5 87.5,4.5C 87.6107,5.11742 87.944,5.61742 88.5,6C 79.0563,14.4418 69.8896,23.2752 61,32.5C 60.7216,31.5842 60.2216,30.9175 59.5,30.5C 59.5,29.5 59.5,28.5 59.5,27.5C 64.2297,23.7731 68.2297,19.4397 71.5,14.5C 71.8333,14.5 72.1667,14.5 72.5,14.5C 75.4729,12.1938 78.1395,9.52716 80.5,6.5C 81.7095,6.06795 82.7095,5.40128 83.5,4.5 Z"/></g>
<g><path style="opacity:1" fill="#1c4c85" d="M 87.5,4.5 C 90.5,4.5 93.5,4.5 96.5,4.5C 85.7819,14.8833 75.4486,25.55 65.5,36.5C 61.8333,36.1667 59.8333,34.1667 59.5,30.5C 60.2216,30.9175 60.7216,31.5842 61,32.5C 69.8896,23.2752 79.0563,14.4418 88.5,6C 87.944,5.61742 87.6107,5.11742 87.5,4.5 Z"/></g>
<g><path style="opacity:1" fill="#1c437b" d="M 103.5,46.5 C 98.9165,50.241 94.4165,54.241 90,58.5C 88.5619,59.9003 87.7286,61.567 87.5,63.5C 84.9407,63.1984 82.6074,63.5318 80.5,64.5C 70.1452,64.8319 59.8119,64.4986 49.5,63.5C 49.6236,62.8933 49.9569,62.56 50.5,62.5C 51.5798,62.3143 52.9131,62.6476 54.5,63.5C 57.7554,62.3594 61.0888,61.5261 64.5,61C 65.6667,60.5 66.5,59.6667 67,58.5C 68.813,59.6091 69.6463,58.9424 69.5,56.5C 70.6935,55.7281 71.6935,54.7281 72.5,53.5C 73.4916,53.6716 74.1583,53.3382 74.5,52.5C 74.8333,52.5 75.1667,52.5 75.5,52.5C 75.4701,53.4972 75.9701,54.1639 77,54.5C 80.0037,52.6616 82.5037,50.3282 84.5,47.5C 88.2379,44.0897 91.2379,40.0897 93.5,35.5C 94.1667,35.5 94.5,35.1667 94.5,34.5C 94.5,34.1667 94.5,33.8333 94.5,33.5C 95.1667,33.5 95.5,33.1667 95.5,32.5C 95.5,32.1667 95.5,31.8333 95.5,31.5C 96.1667,31.5 96.5,31.1667 96.5,30.5C 96.5,30.1667 96.5,29.8333 96.5,29.5C 97.3382,29.1583 97.6716,28.4916 97.5,27.5C 97.5,27.1667 97.5,26.8333 97.5,26.5C 98.3382,26.1583 98.6716,25.4916 98.5,24.5C 98.5,24.1667 98.5,23.8333 98.5,23.5C 99.3382,23.1583 99.6716,22.4916 99.5,21.5C 99.5,20.8333 99.5,20.1667 99.5,19.5C 100.404,18.791 100.737,17.791 100.5,16.5C 100.5,15.5 100.5,14.5 100.5,13.5C 101.166,10.6417 101.833,7.64172 102.5,4.5C 103.499,18.4841 103.833,32.4841 103.5,46.5 Z"/></g>
<g><path style="opacity:1" fill="#184580" d="M 96.5,4.5 C 97.5,4.5 98.5,4.5 99.5,4.5C 99.6592,11.0337 98.6592,17.367 96.5,23.5C 95.7093,21.6907 95.7093,19.6907 96.5,17.5C 97.4511,16.0813 97.7845,14.4147 97.5,12.5C 98.2178,10.8632 98.3845,9.19657 98,7.5C 87.9072,18.0968 77.4072,28.0968 66.5,37.5C 66.5,36.8333 66.1667,36.5 65.5,36.5C 75.4486,25.55 85.7819,14.8833 96.5,4.5 Z"/></g>
<g><path style="opacity:1" fill="#3675b5" d="M 65.5,4.5 C 63.0626,6.433 60.7293,8.59966 58.5,11C 56.8333,11.3333 55.1667,11.6667 53.5,12C 54.056,12.3826 54.3893,12.8826 54.5,13.5C 54.5,14.1667 54.5,14.8333 54.5,15.5C 51.1395,18.1938 48.1395,21.1938 45.5,24.5C 45.5,17.8333 45.5,11.1667 45.5,4.5C 52.1667,4.5 58.8333,4.5 65.5,4.5 Z"/></g>
<g><path style="opacity:1" fill="#143f77" d="M 97.5,12.5 C 83.7015,25.7981 70.0348,39.2981 56.5,53C 57.056,53.3826 57.3893,53.8826 57.5,54.5C 57.1667,54.5 56.8333,54.5 56.5,54.5C 55.209,54.2627 54.209,54.596 53.5,55.5C 52.5,55.5 51.5,55.5 50.5,55.5C 48.5853,55.7845 46.9187,55.4511 45.5,54.5C 51.8123,49.5211 57.4789,43.8544 62.5,37.5C 63.8333,37.5 65.1667,37.5 66.5,37.5C 77.4072,28.0968 87.9072,18.0968 98,7.5C 98.3845,9.19657 98.2178,10.8632 97.5,12.5 Z"/></g>
<g><path style="opacity:1" fill="#10386e" d="M 97.5,12.5 C 97.7845,14.4147 97.4511,16.0813 96.5,17.5C 84.8682,28.6313 73.3682,39.9646 62,51.5C 61.5357,52.0944 61.369,52.7611 61.5,53.5C 61.1667,53.5 60.8333,53.5 60.5,53.5C 59.5084,53.3284 58.8417,53.6618 58.5,54.5C 58.1667,54.5 57.8333,54.5 57.5,54.5C 57.3893,53.8826 57.056,53.3826 56.5,53C 70.0348,39.2981 83.7015,25.7981 97.5,12.5 Z"/></g>
<g><path style="opacity:1" fill="#265d9a" d="M 80.5,6.5 C 78.1395,9.52716 75.4729,12.1938 72.5,14.5C 72.1667,13.1667 71.8333,13.1667 71.5,14.5C 68.2297,19.4397 64.2297,23.7731 59.5,27.5C 59.5,26.1667 59.5,24.8333 59.5,23.5C 65.5331,18.1335 71.1998,12.4669 76.5,6.5C 77.9584,5.21798 79.2918,5.21798 80.5,6.5 Z"/></g>
<g><path style="opacity:1" fill="#0c336b" d="M 96.5,17.5 C 95.7093,19.6907 95.7093,21.6907 96.5,23.5C 94.7051,29.09 91.8718,34.09 88,38.5C 87.6258,37.5838 87.1258,36.7504 86.5,36C 88.0629,35.2411 89.0629,34.0744 89.5,32.5C 90.0649,31.1076 91.0649,29.441 92.5,27.5C 94.0986,26.2015 94.5986,24.5348 94,22.5C 84.2812,31.6985 75.4479,41.0318 67.5,50.5C 65.7496,51.8698 63.7496,52.8698 61.5,53.5C 61.369,52.7611 61.5357,52.0944 62,51.5C 73.3682,39.9646 84.8682,28.6313 96.5,17.5 Z"/></g>
<g><path style="opacity:1" fill="#316bab" d="M 54.5,15.5 C 54.5,18.1667 54.5,20.8333 54.5,23.5C 51.8605,26.8062 48.8605,29.8062 45.5,32.5C 45.5,29.8333 45.5,27.1667 45.5,24.5C 48.1395,21.1938 51.1395,18.1938 54.5,15.5 Z"/></g>
<g><path style="opacity:1" fill="#0b3264" d="M 92.5,27.5 C 84.6758,33.4823 77.3425,40.6489 70.5,49C 69.4734,49.5133 68.4734,50.0133 67.5,50.5C 75.4479,41.0318 84.2812,31.6985 94,22.5C 94.5986,24.5348 94.0986,26.2015 92.5,27.5 Z"/></g>
<g><path style="opacity:1" fill="#285f9c" d="M 54.5,23.5 C 54.5,26.5 54.5,29.5 54.5,32.5C 51.8333,35.8333 48.8333,38.8333 45.5,41.5C 45.5,38.5 45.5,35.5 45.5,32.5C 48.8605,29.8062 51.8605,26.8062 54.5,23.5 Z"/></g>
<g><path style="opacity:1" fill="#062a5d" d="M 99.5,4.5 C 100.477,7.2869 100.81,10.2869 100.5,13.5C 100.5,14.5 100.5,15.5 100.5,16.5C 99.596,17.209 99.2627,18.209 99.5,19.5C 99.5,20.1667 99.5,20.8333 99.5,21.5C 98.6618,21.8417 98.3284,22.5084 98.5,23.5C 98.5,23.8333 98.5,24.1667 98.5,24.5C 97.6618,24.8417 97.3284,25.5084 97.5,26.5C 97.5,26.8333 97.5,27.1667 97.5,27.5C 96.6618,27.8417 96.3284,28.5084 96.5,29.5C 96.5,29.8333 96.5,30.1667 96.5,30.5C 95.8333,30.5 95.5,30.8333 95.5,31.5C 95.5,31.8333 95.5,32.1667 95.5,32.5C 94.8333,32.5 94.5,32.8333 94.5,33.5C 94.5,33.8333 94.5,34.1667 94.5,34.5C 93.8333,34.5 93.5,34.8333 93.5,35.5C 91.2379,40.0897 88.2379,44.0897 84.5,47.5C 83.8333,46.8333 83.1667,46.1667 82.5,45.5C 82.1667,45.5 81.8333,45.5 81.5,45.5C 82.6576,44.0502 82.1576,43.0502 80,42.5C 79,43.5 78,44.5 77,45.5C 76.3333,44.8333 76.3333,44.1667 77,43.5C 80.7359,39.259 84.9026,35.5924 89.5,32.5C 89.0629,34.0744 88.0629,35.2411 86.5,36C 87.1258,36.7504 87.6258,37.5838 88,38.5C 91.8718,34.09 94.7051,29.09 96.5,23.5C 98.6592,17.367 99.6592,11.0337 99.5,4.5 Z"/></g>
<g><path style="opacity:1" fill="#215190" d="M 54.5,32.5 C 56.3016,34.9017 58.6349,36.5684 61.5,37.5C 59.2843,38.2026 57.451,39.5359 56,41.5C 56.3333,39.8333 56.6667,38.1667 57,36.5C 52.963,40.369 49.1296,44.369 45.5,48.5C 45.5,46.1667 45.5,43.8333 45.5,41.5C 48.8333,38.8333 51.8333,35.8333 54.5,32.5 Z"/></g>
<g><path style="opacity:1" fill="#1c4c85" d="M 61.5,37.5 C 61.8333,37.5 62.1667,37.5 62.5,37.5C 57.4789,43.8544 51.8123,49.5211 45.5,54.5C 45.5,52.5 45.5,50.5 45.5,48.5C 49.1296,44.369 52.963,40.369 57,36.5C 56.6667,38.1667 56.3333,39.8333 56,41.5C 57.451,39.5359 59.2843,38.2026 61.5,37.5 Z"/></g>
<g><path style="opacity:1" fill="#05265a" d="M 92.5,27.5 C 91.0649,29.441 90.0649,31.1076 89.5,32.5C 84.9026,35.5924 80.7359,39.259 77,43.5C 76.3333,44.1667 76.3333,44.8333 77,45.5C 78,44.5 79,43.5 80,42.5C 82.1576,43.0502 82.6576,44.0502 81.5,45.5C 81.5,45.8333 81.5,46.1667 81.5,46.5C 80.8333,46.5 80.5,46.8333 80.5,47.5C 79.8333,47.5 79.5,47.8333 79.5,48.5C 78.8333,48.5 78.5,48.8333 78.5,49.5C 77.8333,49.5 77.5,49.8333 77.5,50.5C 77.1667,50.5 76.8333,50.5 76.5,50.5C 75.8333,50.5 75.5,50.8333 75.5,51.5C 74.8333,51.5 74.5,51.8333 74.5,52.5C 73.5084,52.3284 72.8417,52.6618 72.5,53.5C 63.9638,57.5509 54.9638,59.8842 45.5,60.5C 45.5,59.1667 45.5,57.8333 45.5,56.5C 47.4147,56.7845 49.0813,56.4511 50.5,55.5C 51.5,55.5 52.5,55.5 53.5,55.5C 54.791,55.7373 55.791,55.404 56.5,54.5C 56.8333,54.5 57.1667,54.5 57.5,54.5C 57.8333,54.5 58.1667,54.5 58.5,54.5C 59.4916,54.6716 60.1583,54.3382 60.5,53.5C 60.8333,53.5 61.1667,53.5 61.5,53.5C 63.7496,52.8698 65.7496,51.8698 67.5,50.5C 68.4734,50.0133 69.4734,49.5133 70.5,49C 77.3425,40.6489 84.6758,33.4823 92.5,27.5 Z"/></g>
<g><path style="opacity:1" fill="#10366b" d="M 103.5,46.5 C 103.5,49.5 103.5,52.5 103.5,55.5C 100.141,58.5285 96.8076,61.5285 93.5,64.5C 89.1667,64.5 84.8333,64.5 80.5,64.5C 82.6074,63.5318 84.9407,63.1984 87.5,63.5C 87.7286,61.567 88.5619,59.9003 90,58.5C 94.4165,54.241 98.9165,50.241 103.5,46.5 Z"/></g>
<g><path style="opacity:1" fill="#0c3770" d="M 82.5,45.5 C 83.1667,46.1667 83.8333,46.8333 84.5,47.5C 82.5037,50.3282 80.0037,52.6616 77,54.5C 75.9701,54.1639 75.4701,53.4972 75.5,52.5C 75.5,52.1667 75.5,51.8333 75.5,51.5C 76.1667,51.5 76.5,51.1667 76.5,50.5C 76.8333,50.5 77.1667,50.5 77.5,50.5C 78.1667,50.5 78.5,50.1667 78.5,49.5C 79.1667,49.5 79.5,49.1667 79.5,48.5C 80.1667,48.5 80.5,48.1667 80.5,47.5C 81.1667,47.5 81.5,47.1667 81.5,46.5C 82.1667,46.5 82.5,46.1667 82.5,45.5 Z"/></g>
<g><path style="opacity:1" fill="#184c8c" d="M 69.5,56.5 C 69.6463,58.9424 68.813,59.6091 67,58.5C 66.5,59.6667 65.6667,60.5 64.5,61C 61.0888,61.5261 57.7554,62.3594 54.5,63.5C 52.9131,62.6476 51.5798,62.3143 50.5,62.5C 56.9781,61.2909 63.3115,59.2909 69.5,56.5 Z"/></g>
<g><path style="opacity:1" fill="#06285e" d="M 103.5,55.5 C 103.777,58.4475 103.444,61.2809 102.5,64C 99.5184,64.498 96.5184,64.6646 93.5,64.5C 96.8076,61.5285 100.141,58.5285 103.5,55.5 Z"/></g>
<g><path style="opacity:1" fill="#3574b5" d="M 8.5,70.5 C 10.288,70.2148 11.9547,70.5481 13.5,71.5C 12.4383,74.1029 12.2716,76.7695 13,79.5C 14.3333,80.8333 15.6667,80.8333 17,79.5C 16.9345,76.422 17.1012,73.422 17.5,70.5C 17.8333,72.1667 18.1667,73.8333 18.5,75.5C 19.131,81.8784 16.4643,84.2117 10.5,82.5C 9.61448,78.5245 8.94781,74.5245 8.5,70.5 Z"/></g>
<g><path style="opacity:1" fill="#3574b5" d="M 20.5,70.5 C 21.9778,70.238 23.3112,70.5713 24.5,71.5C 28.119,77.1566 29.119,76.8232 27.5,70.5C 28.675,70.281 29.675,70.6143 30.5,71.5C 29.7315,75.4452 29.2315,79.4452 29,83.5C 27.0394,80.5372 24.706,77.8706 22,75.5C 21.8253,78.1572 21.9919,80.8239 22.5,83.5C 21.325,83.719 20.325,83.3857 19.5,82.5C 20.4328,78.5705 20.7662,74.5705 20.5,70.5 Z"/></g>
<g><path style="opacity:1" fill="#3675b5" d="M 31.5,70.5 C 33.288,70.2148 34.9547,70.5481 36.5,71.5C 35.1667,74.8333 35.1667,78.1667 36.5,81.5C 35.3315,83.2174 33.6648,83.8841 31.5,83.5C 32.8333,79.1667 32.8333,74.8333 31.5,70.5 Z"/></g>
<g><path style="opacity:1" fill="#3574b5" d="M 54.5,74.5 C 54.6602,76.1992 54.4935,77.8659 54,79.5C 51.3095,78.5411 50.9762,79.2078 53,81.5C 54.3139,80.6872 55.4805,79.6872 56.5,78.5C 57.2975,78.9569 57.6309,79.6236 57.5,80.5C 56.596,81.209 56.2627,82.209 56.5,83.5C 53.4281,83.8174 50.4281,83.4841 47.5,82.5C 48.5748,79.562 48.7415,76.562 48,73.5C 47.3086,75.8912 46.3086,75.8912 45,73.5C 44.5017,76.8168 44.335,80.1501 44.5,83.5C 42.712,83.7852 41.0453,83.4519 39.5,82.5C 40.5851,79.227 40.7517,75.8936 40,72.5C 37.8432,76.1735 37.0098,75.5068 37.5,70.5C 43.9748,71.1283 50.3081,71.1283 56.5,70.5C 56.6602,72.1992 56.4935,73.8659 56,75.5C 55.6174,74.944 55.1174,74.6107 54.5,74.5 Z M 54.5,74.5 C 52.2395,75.8856 51.4062,75.2189 52,72.5C 52.9947,73.0659 53.828,73.7326 54.5,74.5 Z"/></g>
<g><path style="opacity:1" fill="#3674b5" d="M 57.5,80.5 C 58.5905,77.3188 58.5905,73.9855 57.5,70.5C 67.3011,69.442 70.3011,73.2754 66.5,82C 63.6074,83.1488 60.6074,83.6488 57.5,83.5C 57.5,82.5 57.5,81.5 57.5,80.5 Z M 61.5,72.5 C 64.1717,74.3914 65.1717,77.0581 64.5,80.5C 63.5,80.5 62.5,80.5 61.5,80.5C 61.5,77.8333 61.5,75.1667 61.5,72.5 Z"/></g>
<g><path style="opacity:1" fill="#3574b5" d="M 85.5,70.5 C 87.288,70.2148 88.9547,70.5481 90.5,71.5C 89.7542,72.7362 89.4208,74.0695 89.5,75.5C 90.5,75.5 91.5,75.5 92.5,75.5C 92.5,73.8333 92.5,72.1667 92.5,70.5C 93.8333,70.5 95.1667,70.5 96.5,70.5C 96.5,74.8333 96.5,79.1667 96.5,83.5C 95.1667,83.5 93.8333,83.5 92.5,83.5C 92.5,81.5 92.5,79.5 92.5,77.5C 91.5,77.5 90.5,77.5 89.5,77.5C 89.8333,79.5 90.1667,81.5 90.5,83.5C 88.8333,83.5 87.1667,83.5 85.5,83.5C 86.8333,79.1667 86.8333,74.8333 85.5,70.5 Z"/></g>
<g><path style="opacity:1" fill="#3574b5" d="M 109.5,70.5 C 113.17,70.3266 115.67,71.9933 117,75.5C 118.324,69.0685 119.158,69.4018 119.5,76.5C 119.603,79.0373 119.103,81.3706 118,83.5C 116,80.8333 114,78.1667 112,75.5C 111.289,77.8991 111.456,80.2324 112.5,82.5C 111.675,83.3857 110.675,83.719 109.5,83.5C 110.833,79.1667 110.833,74.8333 109.5,70.5 Z"/></g>
<g><path style="opacity:1" fill="#3573b5" d="M 138.5,79.5 C 139.117,79.3893 139.617,79.056 140,78.5C 140.494,80.1341 140.66,81.8008 140.5,83.5C 137.5,83.5 134.5,83.5 131.5,83.5C 131.5,79.1667 131.5,74.8333 131.5,70.5C 134.448,70.2229 137.281,70.5562 140,71.5C 139.842,74.1794 139.342,76.846 138.5,79.5 Z M 135.5,72.5 C 139.029,73.2973 139.195,74.2973 136,75.5C 135.517,74.552 135.351,73.552 135.5,72.5 Z M 138.5,79.5 C 137.614,80.7759 136.614,80.7759 135.5,79.5C 136.233,78.913 137.233,78.913 138.5,79.5 Z"/></g>
<g><path style="opacity:1" fill="#3673b5" d="M 102.5,70.5 C 103.79,71.0577 104.623,72.0577 105,73.5C 106.467,76.7584 107.633,80.0917 108.5,83.5C 106.833,83.5 105.167,83.5 103.5,83.5C 103.5,82.1667 103.5,80.8333 103.5,79.5C 102.5,79.5 101.5,79.5 100.5,79.5C 100.5,80.8333 100.5,82.1667 100.5,83.5C 99.5,83.5 98.5,83.5 97.5,83.5C 99.4189,79.318 101.086,74.9847 102.5,70.5 Z"/></g>
<g><path style="opacity:1" fill="#3673b5" d="M 124.5,70.5 C 126.167,70.5 127.833,70.5 129.5,70.5C 129.662,72.5273 129.495,74.5273 129,76.5C 127.248,71.6718 125.414,71.5051 123.5,76C 124.406,79.1838 126.239,80.0172 129,78.5C 129.659,81.3534 128.492,83.0201 125.5,83.5C 120.34,81.3271 119.173,77.6605 122,72.5C 122.995,71.9341 123.828,71.2674 124.5,70.5 Z"/></g>
<g><path style="opacity:1" fill="#3674b5" d="M 78.5,70.5 C 83.3855,69.4048 85.0522,71.0715 83.5,75.5C 79.3683,71.4299 77.8683,72.4299 79,78.5C 80.6667,79.8333 82.3333,79.8333 84,78.5C 84.502,81.7146 83.002,83.3812 79.5,83.5C 76.448,82.7342 74.7814,80.7342 74.5,77.5C 75.0937,74.692 76.4271,72.3587 78.5,70.5 Z"/></g>
</svg>
