<?xml version="1.0" encoding="UTF-8"?>
<!DOCTYPE svg PUBLIC "-//W3C//DTD SVG 1.1//EN" "http://www.w3.org/Graphics/SVG/1.1/DTD/svg11.dtd">
<svg xmlns="http://www.w3.org/2000/svg" version="1.1" width="4096px" height="2195px" style="shape-rendering:geometricPrecision; text-rendering:geometricPrecision; image-rendering:optimizeQuality; fill-rule:evenodd; clip-rule:evenodd" xmlns:xlink="http://www.w3.org/1999/xlink">
<g><path style="opacity:1" fill="#3775b4" d="M 1262.5,54.5 C 1435,55.4997 1607.67,55.833 1780.5,55.5C 1780.5,55.8333 1780.5,56.1667 1780.5,56.5C 1774.16,56.3338 1767.82,56.5005 1761.5,57C 1702.83,115.667 1644.17,174.333 1585.5,233C 1534.5,233.5 1483.5,233.667 1432.5,233.5C 1432.25,235.401 1432.58,236.067 1433.5,235.5C 1434.83,235.833 1436.17,236.167 1437.5,236.5C 1462.23,247.879 1478.06,266.879 1485,293.5C 1486.11,301.153 1487.11,308.819 1488,316.5C 1488.5,334.497 1488.67,352.497 1488.5,370.5C 1487.51,362.684 1487.17,354.684 1487.5,346.5C 1487.67,341.156 1487.5,335.823 1487,330.5C 1412.86,405.639 1338.36,480.473 1263.5,555C 1262.91,555.464 1262.24,555.631 1261.5,555.5C 1261.17,388.333 1261.5,221.333 1262.5,54.5 Z"/></g>
<g><path style="opacity:1" fill="#3270af" d="M 1780.5,56.5 C 1780.5,56.1667 1780.5,55.8333 1780.5,55.5C 1812.84,55.1668 1845.17,55.5001 1877.5,56.5C 1818.83,115.5 1760.17,174.5 1701.5,233.5C 1667.51,234.5 1633.51,234.833 1599.5,234.5C 1605.32,233.672 1611.32,233.172 1617.5,233C 1676.05,174.569 1734.39,115.903 1792.5,57C 1788.51,56.5012 1784.51,56.3345 1780.5,56.5 Z"/></g>
<g><path style="opacity:1" fill="#3269af" d="M 1262.5,54.5 C 1572.5,54.5 1882.5,54.5 2192.5,54.5C 2192.5,54.8333 2192.5,55.1667 2192.5,55.5C 2179.17,55.5 2165.83,55.5 2152.5,55.5C 2132.5,55.5 2112.5,55.5 2092.5,55.5C 2065.17,55.5 2037.83,55.5 2010.5,55.5C 2005.5,55.5 2000.5,55.5 1995.5,55.5C 1967.16,55.1669 1938.83,55.5002 1910.5,56.5C 1823.15,144.521 1735.48,232.188 1647.5,319.5C 1647.29,285.167 1661.29,258.667 1689.5,240C 1692.65,238.924 1695.65,237.591 1698.5,236C 1611.33,235.168 1524.33,235.334 1437.5,236.5C 1436.17,236.167 1434.83,235.833 1433.5,235.5C 1488.66,234.501 1544,234.168 1599.5,234.5C 1633.51,234.833 1667.51,234.5 1701.5,233.5C 1760.17,174.5 1818.83,115.5 1877.5,56.5C 1845.17,55.5001 1812.84,55.1668 1780.5,55.5C 1607.67,55.833 1435,55.4997 1262.5,54.5 Z"/></g>
<g><path style="opacity:1" fill="#316aa7" d="M 1995.5,55.5 C 1879.83,171.833 1763.83,287.833 1647.5,403.5C 1647.5,375.5 1647.5,347.5 1647.5,319.5C 1735.48,232.188 1823.15,144.521 1910.5,56.5C 1938.83,55.5002 1967.16,55.1669 1995.5,55.5 Z"/></g>
<g><path style="opacity:1" fill="#2b64a8" d="M 1995.5,55.5 C 2000.5,55.5 2005.5,55.5 2010.5,55.5C 1890.22,177.452 1769.22,298.785 1647.5,419.5C 1647.5,414.167 1647.5,408.833 1647.5,403.5C 1763.83,287.833 1879.83,171.833 1995.5,55.5 Z"/></g>
<g><path style="opacity:1" fill="#2b63a1" d="M 2010.5,55.5 C 2037.83,55.5 2065.17,55.5 2092.5,55.5C 2097.99,56.3272 2103.65,56.8272 2109.5,57C 2050.3,116.035 1991.3,175.201 1932.5,234.5C 1923.16,234.334 1913.83,234.5 1904.5,235C 1905.04,235.717 1905.71,236.217 1906.5,236.5C 1910.34,238.584 1914,240.917 1917.5,243.5C 1918.22,245.137 1918.38,246.803 1918,248.5C 1827.97,338.701 1737.8,428.701 1647.5,518.5C 1647.5,485.5 1647.5,452.5 1647.5,419.5C 1769.22,298.785 1890.22,177.452 2010.5,55.5 Z"/></g>
<g><path style="opacity:1" fill="#2a649c" d="M 2092.5,55.5 C 2112.5,55.5 2132.5,55.5 2152.5,55.5C 2145.34,56.3288 2138.01,56.8288 2130.5,57C 2071.83,115.667 2013.17,174.333 1954.5,233C 1947.12,233.235 1939.79,233.735 1932.5,234.5C 1991.3,175.201 2050.3,116.035 2109.5,57C 2103.65,56.8272 2097.99,56.3272 2092.5,55.5 Z"/></g>
<g><path style="opacity:1" fill="#255d95" d="M 2192.5,55.5 C 2192.5,55.1667 2192.5,54.8333 2192.5,54.5C 2249.83,54.5 2307.17,54.5 2364.5,54.5C 2364.5,54.8333 2364.5,55.1667 2364.5,55.5C 2351.5,55.5 2338.5,55.5 2325.5,55.5C 2299.5,55.3334 2273.5,55.5 2247.5,56C 2161.67,141.833 2075.83,227.667 1990,313.5C 1990.28,311.321 1990.12,309.321 1989.5,307.5C 1995.99,286.021 2006.99,267.188 2022.5,251C 2029.21,245.324 2036.21,240.158 2043.5,235.5C 2029.58,234.659 2014.91,234.159 1999.5,234C 2010.83,233.667 2022.17,233.333 2033.5,233C 2092.17,174.333 2150.83,115.667 2209.5,57C 2215.5,56.6667 2221.5,56.3333 2227.5,56C 2215.84,55.5001 2204.17,55.3335 2192.5,55.5 Z"/></g>
<g><path style="opacity:1" fill="#255695" d="M 2325.5,55.5 C 2211.92,170.584 2097.75,285.25 1983,399.5C 1982.83,405.016 1982.33,410.349 1981.5,415.5C 1981.33,394.164 1981.5,372.831 1982,351.5C 1982.94,336.533 1985.44,321.867 1989.5,307.5C 1990.12,309.321 1990.28,311.321 1990,313.5C 2075.83,227.667 2161.67,141.833 2247.5,56C 2273.5,55.5 2299.5,55.3334 2325.5,55.5 Z"/></g>
<g><path style="opacity:1" fill="#23578e" d="M 2325.5,55.5 C 2338.5,55.5 2351.5,55.5 2364.5,55.5C 2363.5,56.6828 2362.66,58.0161 2362,59.5C 2235.61,184.764 2109.78,310.597 1984.5,437C 1983.47,437.513 1982.47,438.013 1981.5,438.5C 1981.5,430.833 1981.5,423.167 1981.5,415.5C 1982.33,410.349 1982.83,405.016 1983,399.5C 2097.75,285.25 2211.92,170.584 2325.5,55.5 Z"/></g>
<g><path style="opacity:1" fill="#1f518f" d="M 2364.5,55.5 C 2379.17,55.5 2393.83,55.5 2408.5,55.5C 2413.99,56.3272 2419.65,56.8272 2425.5,57C 2278,204.5 2130.5,352 1983,499.5C 1982.83,505.016 1982.33,510.349 1981.5,515.5C 1981.5,489.833 1981.5,464.167 1981.5,438.5C 1982.47,438.013 1983.47,437.513 1984.5,437C 2109.78,310.597 2235.61,184.764 2362,59.5C 2362.66,58.0161 2363.5,56.6828 2364.5,55.5 Z"/></g>
<g><path style="opacity:1" fill="#1f5189" d="M 2408.5,55.5 C 2432.85,55.2349 2457.18,55.7349 2481.5,57C 2315.25,223.75 2148.58,389.916 1981.5,555.5C 1981.5,542.167 1981.5,528.833 1981.5,515.5C 1982.33,510.349 1982.83,505.016 1983,499.5C 2130.5,352 2278,204.5 2425.5,57C 2419.65,56.8272 2413.99,56.3272 2408.5,55.5 Z"/></g>
<g><path style="opacity:1" fill="#1f4a89" d="M 2364.5,55.5 C 2364.5,55.1667 2364.5,54.8333 2364.5,54.5C 2478.5,54.5 2592.5,54.5 2706.5,54.5C 2706.5,54.8333 2706.5,55.1667 2706.5,55.5C 2676.83,55.5 2647.17,55.5 2617.5,55.5C 2586.48,55.1387 2555.48,55.6387 2524.5,57C 2343.63,238.035 2162.63,418.868 1981.5,599.5C 1981.5,584.833 1981.5,570.167 1981.5,555.5C 2148.58,389.916 2315.25,223.75 2481.5,57C 2457.18,55.7349 2432.85,55.2349 2408.5,55.5C 2393.83,55.5 2379.17,55.5 2364.5,55.5 Z"/></g>
<g><path style="opacity:1" fill="#194b82" d="M 2617.5,55.5 C 2617.5,55.8333 2617.5,56.1667 2617.5,56.5C 2406.37,268.132 2195.03,479.632 1983.5,691C 1982.91,691.464 1982.24,691.631 1981.5,691.5C 1981.5,660.833 1981.5,630.167 1981.5,599.5C 2162.63,418.868 2343.63,238.035 2524.5,57C 2555.48,55.6387 2586.48,55.1387 2617.5,55.5 Z"/></g>
<g><path style="opacity:1" fill="#18437c" d="M 2617.5,56.5 C 2617.5,56.1667 2617.5,55.8333 2617.5,55.5C 2647.17,55.5 2676.83,55.5 2706.5,55.5C 2705.72,65.8221 2705.06,76.1554 2704.5,86.5C 2458.81,331.86 2213.14,577.194 1967.5,822.5C 1975.65,798.896 1980.15,774.563 1981,749.5C 1981.5,732.503 1981.67,715.503 1981.5,698.5C 1982.24,698.631 1982.91,698.464 1983.5,698C 2197.17,484.333 2410.83,270.667 2624.5,57C 2622.19,56.5034 2619.86,56.3367 2617.5,56.5 Z"/></g>
<g><path style="opacity:1" fill="#1e63a7" d="M 2706.5,54.5 C 2713.5,54.5 2720.5,54.5 2727.5,54.5C 2727.35,131.658 2721.18,208.325 2709,284.5C 2706.35,300.243 2703.52,315.91 2700.5,331.5C 2692.87,324.369 2685.37,317.036 2678,309.5C 2677.5,307.19 2677.34,304.857 2677.5,302.5C 2682.76,271.856 2687.76,241.189 2692.5,210.5C 2692.5,210.167 2692.5,209.833 2692.5,209.5C 2698.29,170.489 2702.29,131.155 2704.5,91.5C 2704.5,89.8333 2704.5,88.1667 2704.5,86.5C 2705.06,76.1554 2705.72,65.8221 2706.5,55.5C 2706.5,55.1667 2706.5,54.8333 2706.5,54.5 Z"/></g>
<g><path style="opacity:1" fill="#062557" d="M 2727.5,54.5 C 2735.83,54.5 2744.17,54.5 2752.5,54.5C 2755.45,154.581 2748.28,253.915 2731,352.5C 2702.46,513.758 2652.8,667.758 2582,814.5C 2577.76,822.65 2573.26,830.65 2568.5,838.5C 2567.88,838.611 2567.38,838.944 2567,839.5C 2554.51,826.044 2541.68,812.878 2528.5,800C 2527.12,798.666 2525.79,798.499 2524.5,799.5C 2531.5,788.847 2538,777.847 2544,766.5C 2544.48,765.552 2544.65,764.552 2544.5,763.5C 2546.39,760.386 2548.56,757.386 2551,754.5C 2554.02,745.809 2558.35,737.809 2564,730.5C 2568.14,722.557 2571.97,714.557 2575.5,706.5C 2596.57,665.697 2614.9,623.697 2630.5,580.5C 2643.73,547.647 2655.07,513.98 2664.5,479.5C 2669.29,464.354 2673.79,449.021 2678,433.5C 2686.26,399.605 2693.76,365.605 2700.5,331.5C 2703.52,315.91 2706.35,300.243 2709,284.5C 2721.18,208.325 2727.35,131.658 2727.5,54.5 Z"/></g>
<g><path style="opacity:1" fill="#1e437c" d="M 2833.5,56.5 C 2832.67,347.666 2832.17,639 2832,930.5C 2600.33,1162.17 2368.67,1393.83 2137,1625.5C 2136.54,1626.09 2136.37,1626.76 2136.5,1627.5C 1883.17,1627.5 1629.83,1627.5 1376.5,1627.5C 1409.73,1624.76 1443.06,1621.59 1476.5,1618C 1544.41,1609.38 1611.08,1597.04 1676.5,1581C 1681.5,1577.91 1686.84,1576.75 1692.5,1577.5C 1722.26,1569.9 1751.59,1561.06 1780.5,1551C 1786.75,1550.47 1792.75,1549.13 1798.5,1547C 1822.47,1538.17 1846.47,1529.34 1870.5,1520.5C 1895.53,1511.65 1919.86,1501.15 1943.5,1489C 1934.26,1479.88 1925.26,1470.55 1916.5,1461C 1917.34,1459.99 1917.67,1458.82 1917.5,1457.5C 1926.41,1452.31 1935.41,1447.31 1944.5,1442.5C 1944.71,1443.92 1945.21,1445.26 1946,1446.5C 1955.37,1456.21 1965.04,1465.54 1975,1474.5C 2001.4,1461.72 2027.23,1448.05 2052.5,1433.5C 2070.71,1423.24 2088.37,1412.24 2105.5,1400.5C 2115.35,1393.64 2125.19,1386.64 2135,1379.5C 2135.33,1379.83 2135.67,1380.17 2136,1380.5C 2137.36,1377.98 2139.19,1375.98 2141.5,1374.5C 2169.26,1355.75 2195.26,1334.75 2219.5,1311.5C 2222.6,1308.9 2225.6,1306.07 2228.5,1303C 2229.5,1302.67 2230.5,1302.33 2231.5,1302C 2239.04,1292.79 2247.54,1284.62 2257,1277.5C 2257.33,1276.5 2257.67,1275.5 2258,1274.5C 2275.28,1258.04 2291.45,1240.38 2306.5,1221.5C 2314.13,1212.93 2321.29,1203.93 2328,1194.5C 2331.73,1190.6 2335.56,1186.94 2339.5,1183.5C 2340.17,1183.5 2340.5,1183.17 2340.5,1182.5C 2341.17,1182.5 2341.5,1182.17 2341.5,1181.5C 2357.15,1170.31 2372.15,1158.15 2386.5,1145C 2440.61,1093.54 2489.11,1037.04 2532,975.5C 2602.4,871.597 2658.07,759.93 2699,640.5C 2744.31,505.595 2774.64,367.261 2790,225.5C 2795.7,168.598 2799.87,111.598 2802.5,54.5C 2813.22,53.8581 2823.55,54.5247 2833.5,56.5 Z"/></g>
<g><path style="opacity:1" fill="#3270b5" d="M 1780.5,56.5 C 1784.51,56.3345 1788.51,56.5012 1792.5,57C 1734.39,115.903 1676.05,174.569 1617.5,233C 1611.32,233.172 1605.32,233.672 1599.5,234.5C 1544,234.168 1488.66,234.501 1433.5,235.5C 1432.58,236.067 1432.25,235.401 1432.5,233.5C 1483.5,233.667 1534.5,233.5 1585.5,233C 1644.17,174.333 1702.83,115.667 1761.5,57C 1767.82,56.5005 1774.16,56.3338 1780.5,56.5 Z"/></g>
<g><path style="opacity:1" fill="#295c9b" d="M 2152.5,55.5 C 2165.83,55.5 2179.17,55.5 2192.5,55.5C 2204.17,55.3335 2215.84,55.5001 2227.5,56C 2221.5,56.3333 2215.5,56.6667 2209.5,57C 2150.83,115.667 2092.17,174.333 2033.5,233C 2022.17,233.333 2010.83,233.667 1999.5,234C 2014.91,234.159 2029.58,234.659 2043.5,235.5C 1997.66,235.168 1952,235.501 1906.5,236.5C 1905.71,236.217 1905.04,235.717 1904.5,235C 1913.83,234.5 1923.16,234.334 1932.5,234.5C 1939.79,233.735 1947.12,233.235 1954.5,233C 2013.17,174.333 2071.83,115.667 2130.5,57C 2138.01,56.8288 2145.34,56.3288 2152.5,55.5 Z"/></g>
<g><path style="opacity:1" fill="#194383" d="M 2617.5,56.5 C 2619.86,56.3367 2622.19,56.5034 2624.5,57C 2410.83,270.667 2197.17,484.333 1983.5,698C 1982.91,698.464 1982.24,698.631 1981.5,698.5C 1981.5,696.167 1981.5,693.833 1981.5,691.5C 1982.24,691.631 1982.91,691.464 1983.5,691C 2195.03,479.632 2406.37,268.132 2617.5,56.5 Z"/></g>
<g><path style="opacity:1" fill="#19437d" d="M 2833.5,56.5 C 2833.5,366.5 2833.5,676.5 2833.5,986.5C 2832.76,986.369 2832.09,986.536 2831.5,987C 2617.97,1200.37 2404.63,1413.87 2191.5,1627.5C 2173.17,1627.5 2154.83,1627.5 2136.5,1627.5C 2136.37,1626.76 2136.54,1626.09 2137,1625.5C 2368.67,1393.83 2600.33,1162.17 2832,930.5C 2832.17,639 2832.67,347.666 2833.5,56.5 Z"/></g>
<g><path style="opacity:1" fill="#183d7c" d="M 2704.5,86.5 C 2704.5,88.1667 2704.5,89.8333 2704.5,91.5C 2703.71,92.6085 2703.21,93.9419 2703,95.5C 2457,341.5 2211,587.5 1965,833.5C 1964.54,832.906 1964.37,832.239 1964.5,831.5C 1965.3,828.421 1966.3,825.421 1967.5,822.5C 2213.14,577.194 2458.81,331.86 2704.5,86.5 Z"/></g>
<g><path style="opacity:1" fill="#123e76" d="M 2704.5,91.5 C 2702.29,131.155 2698.29,170.489 2692.5,209.5C 2692.66,208.127 2692.49,206.793 2692,205.5C 2302.97,594.368 1914.13,983.368 1525.5,1372.5C 1511.11,1376.05 1496.44,1378.88 1481.5,1381C 1455.59,1384.9 1429.59,1388.07 1403.5,1390.5C 1405.74,1389.74 1408.07,1388.9 1410.5,1388C 1562.83,1235.67 1715.17,1083.33 1867.5,931C 1866.26,930.768 1865.26,930.268 1864.5,929.5C 1898.35,915.927 1925.68,894.26 1946.5,864.5C 1953.3,853.896 1959.3,842.896 1964.5,831.5C 1964.37,832.239 1964.54,832.906 1965,833.5C 2211,587.5 2457,341.5 2703,95.5C 2703.21,93.9419 2703.71,92.6085 2704.5,91.5 Z"/></g>
<g><path style="opacity:1" fill="#123d70" d="M 2692.5,209.5 C 2692.5,209.833 2692.5,210.167 2692.5,210.5C 2691.69,212.292 2691.19,214.292 2691,216.5C 2306.67,600.833 1922.33,985.167 1538,1369.5C 1537.54,1370.09 1537.37,1370.76 1537.5,1371.5C 1533.55,1372.27 1529.55,1372.61 1525.5,1372.5C 1914.13,983.368 2302.97,594.368 2692,205.5C 2692.49,206.793 2692.66,208.127 2692.5,209.5 Z"/></g>
<g><path style="opacity:1" fill="#113870" d="M 2692.5,210.5 C 2687.76,241.189 2682.76,271.856 2677.5,302.5C 2676.33,310.625 2674.33,318.625 2671.5,326.5C 2332.37,665.132 1993.37,1003.97 1654.5,1343C 1655.06,1343.38 1655.39,1343.88 1655.5,1344.5C 1616.48,1354.96 1577.15,1363.96 1537.5,1371.5C 1537.37,1370.76 1537.54,1370.09 1538,1369.5C 1922.33,985.167 2306.67,600.833 2691,216.5C 2691.19,214.292 2691.69,212.292 2692.5,210.5 Z"/></g>
<g><path style="opacity:1" fill="#2a639c" d="M 1917.5,243.5 C 1922.44,246.811 1926.78,250.811 1930.5,255.5C 1836.88,350.785 1742.55,445.451 1647.5,539.5C 1647.5,532.5 1647.5,525.5 1647.5,518.5C 1737.8,428.701 1827.97,338.701 1918,248.5C 1918.38,246.803 1918.22,245.137 1917.5,243.5 Z"/></g>
<g><path style="opacity:1" fill="#265c9b" d="M 1930.5,255.5 C 1945.4,270.962 1955.4,289.295 1960.5,310.5C 1959.69,309.571 1958.85,308.571 1958,307.5C 1854.99,411.674 1751.49,515.341 1647.5,618.5C 1647.5,592.167 1647.5,565.833 1647.5,539.5C 1742.55,445.451 1836.88,350.785 1930.5,255.5 Z"/></g>
<g><path style="opacity:1" fill="#255c95" d="M 1960.5,310.5 C 1963.25,319.188 1964.92,328.188 1965.5,337.5C 1859.86,443.806 1753.86,549.806 1647.5,655.5C 1647.5,643.167 1647.5,630.833 1647.5,618.5C 1751.49,515.341 1854.99,411.674 1958,307.5C 1958.85,308.571 1959.69,309.571 1960.5,310.5 Z"/></g>
<g><path style="opacity:1" fill="#0c386a" d="M 2671.5,326.5 C 2671.22,330.188 2670.72,333.855 2670,337.5C 2668.25,345.404 2666.08,353.071 2663.5,360.5C 2339.45,684.047 2015.62,1007.71 1692,1331.5C 1691.54,1332.09 1691.37,1332.76 1691.5,1333.5C 1679.7,1337.54 1667.7,1341.21 1655.5,1344.5C 1655.39,1343.88 1655.06,1343.38 1654.5,1343C 1993.37,1003.97 2332.37,665.132 2671.5,326.5 Z"/></g>
<g><path style="opacity:1" fill="#3270b5" d="M 1487.5,346.5 C 1486.83,352.346 1486.17,358.346 1485.5,364.5C 1484.2,365.09 1483.37,366.09 1483,367.5C 1410.25,440.252 1337.41,513.086 1264.5,586C 1263.47,586.513 1262.47,587.013 1261.5,587.5C 1261.5,576.833 1261.5,566.167 1261.5,555.5C 1262.24,555.631 1262.91,555.464 1263.5,555C 1338.36,480.473 1412.86,405.639 1487,330.5C 1487.5,335.823 1487.67,341.156 1487.5,346.5 Z"/></g>
<g><path style="opacity:1" fill="#255796" d="M 1965.5,337.5 C 1966.18,341.119 1966.68,344.786 1967,348.5C 1967.5,376.165 1967.67,403.831 1967.5,431.5C 1966.67,426.684 1966.17,421.684 1966,416.5C 1859.55,522.447 1753.72,628.78 1648.5,735.5C 1647.65,708.843 1647.32,682.176 1647.5,655.5C 1753.86,549.806 1859.86,443.806 1965.5,337.5 Z"/></g>
<g><path style="opacity:1" fill="#3270af" d="M 1487.5,346.5 C 1487.17,354.684 1487.51,362.684 1488.5,370.5C 1488.5,396.167 1488.5,421.833 1488.5,447.5C 1487.76,447.369 1487.09,447.536 1486.5,448C 1411.63,523.035 1336.63,597.868 1261.5,672.5C 1261.5,644.167 1261.5,615.833 1261.5,587.5C 1262.47,587.013 1263.47,586.513 1264.5,586C 1337.41,513.086 1410.25,440.252 1483,367.5C 1483.37,366.09 1484.2,365.09 1485.5,364.5C 1486.17,358.346 1486.83,352.346 1487.5,346.5 Z"/></g>
<g><path style="opacity:1" fill="#0c326a" d="M 2663.5,360.5 C 2662.26,365.389 2661.43,370.389 2661,375.5C 2653.05,402.507 2645.22,429.507 2637.5,456.5C 2636.15,459.572 2634.82,462.572 2633.5,465.5C 2633.63,464.761 2633.46,464.094 2633,463.5C 2355.5,741 2078,1018.5 1800.5,1296C 1800.73,1296.4 1801.06,1296.57 1801.5,1296.5C 1791.22,1300.76 1780.89,1304.93 1770.5,1309C 1752.53,1314.99 1734.53,1320.99 1716.5,1327C 1708.25,1329.47 1699.92,1331.64 1691.5,1333.5C 1691.37,1332.76 1691.54,1332.09 1692,1331.5C 2015.62,1007.71 2339.45,684.047 2663.5,360.5 Z"/></g>
<g><path style="opacity:1" fill="#1b589c" d="M 2677.5,302.5 C 2677.34,304.857 2677.5,307.19 2678,309.5C 2685.37,317.036 2692.87,324.369 2700.5,331.5C 2693.76,365.605 2686.26,399.605 2678,433.5C 2673.79,449.021 2669.29,464.354 2664.5,479.5C 2663.78,479.918 2663.28,480.584 2663,481.5C 2654.63,472.964 2646.13,464.631 2637.5,456.5C 2645.22,429.507 2653.05,402.507 2661,375.5C 2661.43,370.389 2662.26,365.389 2663.5,360.5C 2666.08,353.071 2668.25,345.404 2670,337.5C 2670.72,333.855 2671.22,330.188 2671.5,326.5C 2674.33,318.625 2676.33,310.625 2677.5,302.5 Z"/></g>
<g><path style="opacity:1" fill="#23568f" d="M 1967.5,431.5 C 1967.5,439.167 1967.5,446.833 1967.5,454.5C 1966.53,454.987 1965.53,455.487 1964.5,456C 1861.67,558.833 1758.83,661.667 1656,764.5C 1654.89,765.76 1654.72,766.927 1655.5,768C 1654.91,768.464 1654.24,768.631 1653.5,768.5C 1651.73,757.527 1650.06,746.527 1648.5,735.5C 1753.72,628.78 1859.55,522.447 1966,416.5C 1966.17,421.684 1966.67,426.684 1967.5,431.5 Z"/></g>
<g><path style="opacity:1" fill="#326aaf" d="M 1488.5,447.5 C 1488.5,458.167 1488.5,468.833 1488.5,479.5C 1420.55,546.929 1345.39,621.929 1263,704.5C 1262.83,710.016 1262.33,715.349 1261.5,720.5C 1261.5,704.5 1261.5,688.5 1261.5,672.5C 1336.63,597.868 1411.63,523.035 1486.5,448C 1487.09,447.536 1487.76,447.369 1488.5,447.5 Z"/></g>
<g><path style="opacity:1" fill="#1f518e" d="M 1967.5,454.5 C 1967.5,474.833 1967.5,495.167 1967.5,515.5C 1868.5,614.167 1769.5,712.833 1670.5,811.5C 1667.55,807.2 1665.05,802.534 1663,797.5C 1659.39,787.952 1656.23,778.285 1653.5,768.5C 1654.24,768.631 1654.91,768.464 1655.5,768C 1654.72,766.927 1654.89,765.76 1656,764.5C 1758.83,661.667 1861.67,558.833 1964.5,456C 1965.53,455.487 1966.53,454.987 1967.5,454.5 Z"/></g>
<g><path style="opacity:1" fill="#184f92" d="M 2637.5,456.5 C 2646.13,464.631 2654.63,472.964 2663,481.5C 2663.28,480.584 2663.78,479.918 2664.5,479.5C 2655.07,513.98 2643.73,547.647 2630.5,580.5C 2629.78,580.918 2629.28,581.584 2629,582.5C 2619.63,573.298 2610.46,563.965 2601.5,554.5C 2613,525.16 2623.67,495.494 2633.5,465.5C 2634.82,462.572 2636.15,459.572 2637.5,456.5 Z"/></g>
<g><path style="opacity:1" fill="#316aa7" d="M 1488.5,479.5 C 1488.5,520.833 1488.5,562.167 1488.5,603.5C 1487.67,584.338 1487.17,565.004 1487,545.5C 1486.5,552.158 1486.33,558.825 1486.5,565.5C 1411.5,640.167 1336.5,714.833 1261.5,789.5C 1261.5,766.5 1261.5,743.5 1261.5,720.5C 1262.33,715.349 1262.83,710.016 1263,704.5C 1345.39,621.929 1420.55,546.929 1488.5,479.5 Z"/></g>
<g><path style="opacity:1" fill="#0c3264" d="M 2633.5,465.5 C 2623.67,495.494 2613,525.16 2601.5,554.5C 2599.49,558.203 2597.49,561.869 2595.5,565.5C 2595.57,565.062 2595.4,564.728 2595,564.5C 2366.3,793.035 2137.8,1021.7 1909.5,1250.5C 1908.01,1251.8 1906.35,1252.97 1904.5,1254C 1870.73,1269.9 1836.4,1284.06 1801.5,1296.5C 1801.06,1296.57 1800.73,1296.4 1800.5,1296C 2078,1018.5 2355.5,741 2633,463.5C 2633.46,464.094 2633.63,464.761 2633.5,465.5 Z"/></g>
<g><path style="opacity:1" fill="#1f5189" d="M 1967.5,515.5 C 1967.5,534.167 1967.5,552.833 1967.5,571.5C 1877.03,661.465 1786.7,751.632 1696.5,842C 1695.26,842.232 1694.26,842.732 1693.5,843.5C 1683.4,834.648 1675.73,823.981 1670.5,811.5C 1769.5,712.833 1868.5,614.167 1967.5,515.5 Z"/></g>
<g><path style="opacity:1" fill="#2b64a2" d="M 1488.5,603.5 C 1488.5,628.833 1488.5,654.167 1488.5,679.5C 1413.08,753.416 1338.08,827.916 1263.5,903C 1262.91,903.464 1262.24,903.631 1261.5,903.5C 1261.5,870.5 1261.5,837.5 1261.5,804.5C 1336.75,730.75 1411.58,656.417 1486,581.5C 1486.5,576.177 1486.67,570.844 1486.5,565.5C 1486.33,558.825 1486.5,552.158 1487,545.5C 1487.17,565.004 1487.67,584.338 1488.5,603.5 Z"/></g>
<g><path style="opacity:1" fill="#2b64a8" d="M 1486.5,565.5 C 1486.67,570.844 1486.5,576.177 1486,581.5C 1411.58,656.417 1336.75,730.75 1261.5,804.5C 1261.5,799.5 1261.5,794.5 1261.5,789.5C 1336.5,714.833 1411.5,640.167 1486.5,565.5 Z"/></g>
<g><path style="opacity:1" fill="#1e4b89" d="M 1967.5,571.5 C 1967.5,586.167 1967.5,600.833 1967.5,615.5C 1966.76,615.369 1966.09,615.536 1965.5,616C 1882.9,698.762 1800.24,781.262 1717.5,863.5C 1711.49,859.164 1705.49,854.831 1699.5,850.5C 1696.97,848.582 1694.97,846.249 1693.5,843.5C 1694.26,842.732 1695.26,842.232 1696.5,842C 1786.7,751.632 1877.03,661.465 1967.5,571.5 Z"/></g>
<g><path style="opacity:1" fill="#072b64" d="M 2595.5,565.5 C 2581.39,600.222 2565.39,633.888 2547.5,666.5C 2547.63,665.761 2547.46,665.094 2547,664.5C 2371.83,839.667 2196.67,1014.83 2021.5,1190C 2022.09,1190.46 2022.76,1190.63 2023.5,1190.5C 1986.99,1213.09 1948.99,1233.09 1909.5,1250.5C 2137.8,1021.7 2366.3,793.035 2595,564.5C 2595.4,564.728 2595.57,565.062 2595.5,565.5 Z"/></g>
<g><path style="opacity:1" fill="#124583" d="M 2601.5,554.5 C 2610.46,563.965 2619.63,573.298 2629,582.5C 2629.28,581.584 2629.78,580.918 2630.5,580.5C 2614.9,623.697 2596.57,665.697 2575.5,706.5C 2574.84,707.278 2574.01,707.944 2573,708.5C 2562.38,698.554 2552.21,688.221 2542.5,677.5C 2543.91,673.688 2545.57,670.022 2547.5,666.5C 2565.39,633.888 2581.39,600.222 2595.5,565.5C 2597.49,561.869 2599.49,558.203 2601.5,554.5 Z"/></g>
<g><path style="opacity:1" fill="#194b82" d="M 1967.5,615.5 C 1967.5,646.167 1967.5,676.833 1967.5,707.5C 1908.7,765.799 1850.03,824.299 1791.5,883C 1794.25,883.943 1796.92,884.776 1799.5,885.5C 1778.43,885.185 1758.1,881.352 1738.5,874C 1731.18,870.961 1724.18,867.461 1717.5,863.5C 1800.24,781.262 1882.9,698.762 1965.5,616C 1966.09,615.536 1966.76,615.369 1967.5,615.5 Z"/></g>
<g><path style="opacity:1" fill="#062b5d" d="M 2547.5,666.5 C 2545.57,670.022 2543.91,673.688 2542.5,677.5C 2532.45,695.263 2522.11,712.93 2511.5,730.5C 2503.83,742.538 2496.16,754.538 2488.5,766.5C 2482.57,774.069 2477.23,782.069 2472.5,790.5C 2463.11,801.412 2454.61,813.079 2447,825.5C 2440.28,831.959 2434.78,839.292 2430.5,847.5C 2426.34,851.157 2422.34,854.991 2418.5,859C 2419.29,860.313 2418.95,861.48 2417.5,862.5C 2416.88,862.389 2416.38,862.056 2416,861.5C 2365.17,912.333 2314.33,963.167 2263.5,1014C 2267.33,1012.25 2270.99,1010.25 2274.5,1008C 2291.67,1025.17 2308.83,1042.33 2326,1059.5C 2326.48,1060.45 2326.65,1061.45 2326.5,1062.5C 2309.95,1080.26 2292.95,1097.59 2275.5,1114.5C 2254.91,1094.42 2234.08,1073.75 2213,1052.5C 2211.83,1056.33 2209.33,1058.83 2205.5,1060C 2206.17,1060.33 2206.83,1060.67 2207.5,1061C 2205.6,1062.42 2203.6,1063.59 2201.5,1064.5C 2198.53,1064.63 2196.53,1066.13 2195.5,1069C 2178.47,1081.2 2162.14,1094.37 2146.5,1108.5C 2133.47,1118.01 2120.47,1127.51 2107.5,1137C 2080.07,1155.85 2052.07,1173.68 2023.5,1190.5C 2022.76,1190.63 2022.09,1190.46 2021.5,1190C 2196.67,1014.83 2371.83,839.667 2547,664.5C 2547.46,665.094 2547.63,665.761 2547.5,666.5 Z"/></g>
<g><path style="opacity:1" fill="#113d7c" d="M 2542.5,677.5 C 2552.21,688.221 2562.38,698.554 2573,708.5C 2574.01,707.944 2574.84,707.278 2575.5,706.5C 2571.97,714.557 2568.14,722.557 2564,730.5C 2558.35,737.809 2554.02,745.809 2551,754.5C 2548.56,757.386 2546.39,760.386 2544.5,763.5C 2534.76,752.253 2524.42,741.42 2513.5,731C 2512.91,730.536 2512.24,730.369 2511.5,730.5C 2522.11,712.93 2532.45,695.263 2542.5,677.5 Z"/></g>
<g><path style="opacity:1" fill="#2b649c" d="M 1488.5,679.5 C 1488.5,680.167 1488.5,680.833 1488.5,681.5C 1486.7,687.758 1485.87,694.425 1486,701.5C 1411.3,776.368 1336.47,851.035 1261.5,925.5C 1261.5,918.167 1261.5,910.833 1261.5,903.5C 1262.24,903.631 1262.91,903.464 1263.5,903C 1338.08,827.916 1413.08,753.416 1488.5,679.5 Z"/></g>
<g><path style="opacity:1" fill="#19447d" d="M 1967.5,707.5 C 1968.28,734.868 1964.44,761.535 1956,787.5C 1944.69,819.789 1924.86,845.289 1896.5,864C 1866.52,881.076 1834.18,888.242 1799.5,885.5C 1796.92,884.776 1794.25,883.943 1791.5,883C 1850.03,824.299 1908.7,765.799 1967.5,707.5 Z"/></g>
<g><path style="opacity:1" fill="#0c3d75" d="M 2511.5,730.5 C 2512.24,730.369 2512.91,730.536 2513.5,731C 2524.42,741.42 2534.76,752.253 2544.5,763.5C 2544.65,764.552 2544.48,765.552 2544,766.5C 2538,777.847 2531.5,788.847 2524.5,799.5C 2524.17,799.5 2523.83,799.5 2523.5,799.5C 2512.37,788.869 2501.37,778.035 2490.5,767C 2489.91,766.536 2489.24,766.369 2488.5,766.5C 2496.16,754.538 2503.83,742.538 2511.5,730.5 Z"/></g>
<g><path style="opacity:1" fill="#265d9b" d="M 1488.5,681.5 C 1488.33,704.836 1488.5,728.169 1489,751.5C 1489.63,759.547 1490.46,767.547 1491.5,775.5C 1414.83,851.833 1338.17,928.167 1261.5,1004.5C 1261.5,978.167 1261.5,951.833 1261.5,925.5C 1336.47,851.035 1411.3,776.368 1486,701.5C 1485.87,694.425 1486.7,687.758 1488.5,681.5 Z"/></g>
<g><path style="opacity:1" fill="#0b3775" d="M 2488.5,766.5 C 2489.24,766.369 2489.91,766.536 2490.5,767C 2501.37,778.035 2512.37,788.869 2523.5,799.5C 2523.49,801.017 2522.82,802.184 2521.5,803C 2521.83,803.333 2522.17,803.667 2522.5,804C 2517.12,810.597 2512.12,817.43 2507.5,824.5C 2506.58,825.303 2505.58,825.47 2504.5,825C 2494,814.5 2483.5,804 2473,793.5C 2472.52,792.552 2472.35,791.552 2472.5,790.5C 2477.23,782.069 2482.57,774.069 2488.5,766.5 Z"/></g>
<g><path style="opacity:1" fill="#255c95" d="M 1491.5,775.5 C 1493.42,786.688 1496.09,797.688 1499.5,808.5C 1498.54,808.047 1497.71,807.381 1497,806.5C 1418.63,885.035 1340.13,963.368 1261.5,1041.5C 1261.5,1029.17 1261.5,1016.83 1261.5,1004.5C 1338.17,928.167 1414.83,851.833 1491.5,775.5 Z"/></g>
<g><path style="opacity:1" fill="#0b376f" d="M 2472.5,790.5 C 2472.35,791.552 2472.52,792.552 2473,793.5C 2483.5,804 2494,814.5 2504.5,825C 2505.58,825.47 2506.58,825.303 2507.5,824.5C 2500.54,835.742 2493.54,847.076 2486.5,858.5C 2486.5,859.167 2486.5,859.833 2486.5,860.5C 2484.93,860.937 2483.76,861.937 2483,863.5C 2478.72,870.933 2473.89,877.933 2468.5,884.5C 2455.83,872.167 2443.17,859.833 2430.5,847.5C 2434.78,839.292 2440.28,831.959 2447,825.5C 2454.61,813.079 2463.11,801.412 2472.5,790.5 Z"/></g>
<g><path style="opacity:1" fill="#06255c" d="M 2568.5,838.5 C 2546.12,884.58 2521.12,929.247 2493.5,972.5C 2479.87,958.368 2466.04,944.368 2452,930.5C 2451.62,931.056 2451.12,931.389 2450.5,931.5C 2463.25,908.251 2475.25,884.584 2486.5,860.5C 2487.83,859.833 2487.83,859.167 2486.5,858.5C 2493.54,847.076 2500.54,835.742 2507.5,824.5C 2512.12,817.43 2517.12,810.597 2522.5,804C 2522.17,803.667 2521.83,803.333 2521.5,803C 2522.82,802.184 2523.49,801.017 2523.5,799.5C 2523.83,799.5 2524.17,799.5 2524.5,799.5C 2525.79,798.499 2527.12,798.666 2528.5,800C 2541.68,812.878 2554.51,826.044 2567,839.5C 2567.38,838.944 2567.88,838.611 2568.5,838.5 Z"/></g>
<g><path style="opacity:1" fill="#255695" d="M 1499.5,808.5 C 1505.28,825.914 1513.61,841.914 1524.5,856.5C 1438.2,944.299 1351.04,1031.97 1263,1119.5C 1262.83,1125.02 1262.33,1130.35 1261.5,1135.5C 1261.5,1104.17 1261.5,1072.83 1261.5,1041.5C 1340.13,963.368 1418.63,885.035 1497,806.5C 1497.71,807.381 1498.54,808.047 1499.5,808.5 Z"/></g>
<g><path style="opacity:1" fill="#0b316a" d="M 2430.5,847.5 C 2443.17,859.833 2455.83,872.167 2468.5,884.5C 2465.58,889.937 2462.41,895.27 2459,900.5C 2445.05,919.425 2430.89,938.091 2416.5,956.5C 2416.63,955.761 2416.46,955.094 2416,954.5C 2401.61,941.236 2387.78,927.403 2374.5,913C 2375.38,912.292 2376.05,911.458 2376.5,910.5C 2377.96,908.537 2379.63,906.704 2381.5,905C 2381.17,904.667 2380.83,904.333 2380.5,904C 2382.05,902.786 2383.22,901.286 2384,899.5C 2384.33,899.833 2384.67,900.167 2385,900.5C 2386.17,899.333 2387.33,898.167 2388.5,897C 2388.17,896.667 2387.83,896.333 2387.5,896C 2389.7,893.46 2392.2,891.293 2395,889.5C 2395.91,886.257 2397.91,883.923 2401,882.5C 2401.33,881.5 2401.67,880.5 2402,879.5C 2404.12,878.378 2405.96,876.878 2407.5,875C 2407.17,874.667 2406.83,874.333 2406.5,874C 2410.01,870.18 2413.68,866.347 2417.5,862.5C 2418.95,861.48 2419.29,860.313 2418.5,859C 2422.34,854.991 2426.34,851.157 2430.5,847.5 Z"/></g>
<g><path style="opacity:1" fill="#23568e" d="M 1524.5,856.5 C 1530.43,864.433 1536.76,872.1 1543.5,879.5C 1541.74,880.072 1540.08,880.906 1538.5,882C 1447.17,973.667 1355.83,1065.33 1264.5,1157C 1263.47,1157.51 1262.47,1158.01 1261.5,1158.5C 1261.5,1150.83 1261.5,1143.17 1261.5,1135.5C 1262.33,1130.35 1262.83,1125.02 1263,1119.5C 1351.04,1031.97 1438.2,944.299 1524.5,856.5 Z"/></g>
<g><path style="opacity:1" fill="#1f508e" d="M 1543.5,879.5 C 1554.28,889.292 1565.62,898.292 1577.5,906.5C 1576.76,906.369 1576.09,906.536 1575.5,907C 1470.97,1011.7 1366.3,1116.2 1261.5,1220.5C 1261.5,1199.83 1261.5,1179.17 1261.5,1158.5C 1262.47,1158.01 1263.47,1157.51 1264.5,1157C 1355.83,1065.33 1447.17,973.667 1538.5,882C 1540.08,880.906 1541.74,880.072 1543.5,879.5 Z"/></g>
<g><path style="opacity:1" fill="#1f5089" d="M 1577.5,906.5 C 1588.55,912.694 1599.89,918.361 1611.5,923.5C 1611.66,924.873 1611.49,926.207 1611,927.5C 1495,1043.5 1379,1159.5 1263,1275.5C 1262.83,1282.01 1262.33,1288.35 1261.5,1294.5C 1261.5,1269.83 1261.5,1245.17 1261.5,1220.5C 1366.3,1116.2 1470.97,1011.7 1575.5,907C 1576.09,906.536 1576.76,906.369 1577.5,906.5 Z"/></g>
<g><path style="opacity:1" fill="#063164" d="M 2376.5,910.5 C 2376.05,911.458 2375.38,912.292 2374.5,913C 2387.78,927.403 2401.61,941.236 2416,954.5C 2416.46,955.094 2416.63,955.761 2416.5,956.5C 2404.6,972.739 2391.93,988.406 2378.5,1003.5C 2363.22,987.881 2347.88,972.214 2332.5,956.5C 2340.33,948.188 2347.66,940.688 2354.5,934C 2354.17,933.667 2353.83,933.333 2353.5,933C 2359.46,927.342 2365.46,921.676 2371.5,916C 2371.17,915.667 2370.83,915.333 2370.5,915C 2372.11,912.873 2374.11,911.373 2376.5,910.5 Z"/></g>
<g><path style="opacity:1" fill="#1e4a89" d="M 1611.5,923.5 C 1622.57,927.523 1633.57,931.523 1644.5,935.5C 1517.55,1064.12 1389.88,1192.12 1261.5,1319.5C 1261.5,1311.17 1261.5,1302.83 1261.5,1294.5C 1262.33,1288.35 1262.83,1282.01 1263,1275.5C 1379,1159.5 1495,1043.5 1611,927.5C 1611.49,926.207 1611.66,924.873 1611.5,923.5 Z"/></g>
<g><path style="opacity:1" fill="#193e7d" d="M 1864.5,929.5 C 1865.26,930.268 1866.26,930.768 1867.5,931C 1715.17,1083.33 1562.83,1235.67 1410.5,1388C 1408.07,1388.9 1405.74,1389.74 1403.5,1390.5C 1402.83,1390.5 1402.17,1390.5 1401.5,1390.5C 1552.25,1238.25 1703.58,1086.42 1855.5,935C 1854.94,934.617 1854.61,934.117 1854.5,933.5C 1857.76,932.214 1861.09,930.88 1864.5,929.5 Z"/></g>
<g><path style="opacity:1" fill="#062a5c" d="M 2493.5,972.5 C 2473.49,1004.54 2452.49,1035.87 2430.5,1066.5C 2430.65,1065.45 2430.48,1064.45 2430,1063.5C 2417.27,1050.6 2404.44,1037.94 2391.5,1025.5C 2411.32,995.497 2430.15,964.83 2448,933.5C 2448.71,932.619 2449.54,931.953 2450.5,931.5C 2451.12,931.389 2451.62,931.056 2452,930.5C 2466.04,944.368 2479.87,958.368 2493.5,972.5 Z"/></g>
<g><path style="opacity:1" fill="#19437c" d="M 1854.5,933.5 C 1854.61,934.117 1854.94,934.617 1855.5,935C 1703.58,1086.42 1552.25,1238.25 1401.5,1390.5C 1368.25,1394.35 1334.92,1396.68 1301.5,1397.5C 1296.36,1396.51 1291.03,1396.18 1285.5,1396.5C 1433.97,1247.53 1582.63,1098.7 1731.5,950C 1730.55,949.517 1729.55,949.351 1728.5,949.5C 1728.5,949.167 1728.5,948.833 1728.5,948.5C 1771.5,951.083 1813.5,946.083 1854.5,933.5 Z"/></g>
<g><path style="opacity:1" fill="#194a82" d="M 1644.5,935.5 C 1672.25,942.238 1700.25,946.572 1728.5,948.5C 1728.5,948.833 1728.5,949.167 1728.5,949.5C 1727.13,949.343 1725.79,949.51 1724.5,950C 1575.83,1098.67 1427.17,1247.33 1278.5,1396C 1280.81,1396.5 1283.14,1396.66 1285.5,1396.5C 1291.03,1396.18 1296.36,1396.51 1301.5,1397.5C 1288.17,1397.5 1274.83,1397.5 1261.5,1397.5C 1261.5,1371.5 1261.5,1345.5 1261.5,1319.5C 1389.88,1192.12 1517.55,1064.12 1644.5,935.5 Z"/></g>
<g><path style="opacity:1" fill="#194383" d="M 1728.5,949.5 C 1729.55,949.351 1730.55,949.517 1731.5,950C 1582.63,1098.7 1433.97,1247.53 1285.5,1396.5C 1283.14,1396.66 1280.81,1396.5 1278.5,1396C 1427.17,1247.33 1575.83,1098.67 1724.5,950C 1725.79,949.51 1727.13,949.343 1728.5,949.5 Z"/></g>
<g><path style="opacity:1" fill="#062a63" d="M 2417.5,862.5 C 2413.68,866.347 2410.01,870.18 2406.5,874C 2406.83,874.333 2407.17,874.667 2407.5,875C 2405.96,876.878 2404.12,878.378 2402,879.5C 2401.67,880.5 2401.33,881.5 2401,882.5C 2397.91,883.923 2395.91,886.257 2395,889.5C 2392.2,891.293 2389.7,893.46 2387.5,896C 2387.83,896.333 2388.17,896.667 2388.5,897C 2387.33,898.167 2386.17,899.333 2385,900.5C 2384.67,900.167 2384.33,899.833 2384,899.5C 2383.22,901.286 2382.05,902.786 2380.5,904C 2380.83,904.333 2381.17,904.667 2381.5,905C 2379.63,906.704 2377.96,908.537 2376.5,910.5C 2374.11,911.373 2372.11,912.873 2370.5,915C 2370.83,915.333 2371.17,915.667 2371.5,916C 2365.46,921.676 2359.46,927.342 2353.5,933C 2353.83,933.333 2354.17,933.667 2354.5,934C 2347.66,940.688 2340.33,948.188 2332.5,956.5C 2347.88,972.214 2363.22,987.881 2378.5,1003.5C 2372.54,1011.3 2366.37,1018.96 2360,1026.5C 2348.69,1038.31 2337.52,1050.31 2326.5,1062.5C 2326.65,1061.45 2326.48,1060.45 2326,1059.5C 2308.83,1042.33 2291.67,1025.17 2274.5,1008C 2270.99,1010.25 2267.33,1012.25 2263.5,1014C 2314.33,963.167 2365.17,912.333 2416,861.5C 2416.38,862.056 2416.88,862.389 2417.5,862.5 Z"/></g>
<g><path style="opacity:1" fill="#194476" d="M 2833.5,986.5 C 2833.5,1002.83 2833.5,1019.17 2833.5,1035.5C 2832.67,1028.68 2832.17,1021.68 2832,1014.5C 2627.63,1218.7 2423.47,1423.03 2219.5,1627.5C 2210.17,1627.5 2200.83,1627.5 2191.5,1627.5C 2404.63,1413.87 2617.97,1200.37 2831.5,987C 2832.09,986.536 2832.76,986.369 2833.5,986.5 Z"/></g>
<g><path style="opacity:1" fill="#193d76" d="M 2833.5,1035.5 C 2833.5,1063.5 2833.5,1091.5 2833.5,1119.5C 2832.67,1113.68 2832.17,1107.68 2832,1101.5C 2657.17,1276.33 2482.33,1451.17 2307.5,1626C 2313.68,1626.17 2319.68,1626.67 2325.5,1627.5C 2290.17,1627.5 2254.83,1627.5 2219.5,1627.5C 2423.47,1423.03 2627.63,1218.7 2832,1014.5C 2832.17,1021.68 2832.67,1028.68 2833.5,1035.5 Z"/></g>
<g><path style="opacity:1" fill="#062a63" d="M 2391.5,1025.5 C 2404.44,1037.94 2417.27,1050.6 2430,1063.5C 2430.48,1064.45 2430.65,1065.45 2430.5,1066.5C 2408.61,1096.73 2385.94,1126.39 2362.5,1155.5C 2350.54,1143.03 2338.37,1130.7 2326,1118.5C 2325.94,1116.89 2325.77,1115.55 2325.5,1114.5C 2348.23,1085.36 2370.23,1055.69 2391.5,1025.5 Z"/></g>
<g><path style="opacity:1" fill="#06245c" d="M 2275.5,1114.5 C 2251.01,1138.33 2225.68,1161 2199.5,1182.5C 2181.2,1163.7 2162.7,1145.03 2144,1126.5C 2143.81,1125.18 2143.97,1123.85 2144.5,1122.5C 2164.17,1103.83 2183.17,1084.5 2201.5,1064.5C 2203.6,1063.59 2205.6,1062.42 2207.5,1061C 2206.83,1060.67 2206.17,1060.33 2205.5,1060C 2209.33,1058.83 2211.83,1056.33 2213,1052.5C 2234.08,1073.75 2254.91,1094.42 2275.5,1114.5 Z"/></g>
<g><path style="opacity:1" fill="#173e70" d="M 2833.5,1119.5 C 2833.5,1134.5 2833.5,1149.5 2833.5,1164.5C 2832.67,1158.35 2832.17,1152.01 2832,1145.5C 2671.25,1306.08 2510.75,1466.75 2350.5,1627.5C 2342.17,1627.5 2333.83,1627.5 2325.5,1627.5C 2319.68,1626.67 2313.68,1626.17 2307.5,1626C 2482.33,1451.17 2657.17,1276.33 2832,1101.5C 2832.17,1107.68 2832.67,1113.68 2833.5,1119.5 Z"/></g>
<g><path style="opacity:1" fill="#063163" d="M 2325.5,1114.5 C 2325.77,1115.55 2325.94,1116.89 2326,1118.5C 2338.37,1130.7 2350.54,1143.03 2362.5,1155.5C 2356.08,1163.32 2349.41,1170.99 2342.5,1178.5C 2341.87,1179.42 2341.54,1180.42 2341.5,1181.5C 2340.83,1181.5 2340.5,1181.83 2340.5,1182.5C 2340.5,1183.17 2340.17,1183.5 2339.5,1183.5C 2335.56,1186.94 2331.73,1190.6 2328,1194.5C 2321.29,1203.93 2314.13,1212.93 2306.5,1221.5C 2292.82,1208.14 2279.48,1195.14 2266.5,1182.5C 2286.94,1160.4 2306.61,1137.73 2325.5,1114.5 Z"/></g>
<g><path style="opacity:1" fill="#052456" d="M 2144.5,1122.5 C 2143.97,1123.85 2143.81,1125.18 2144,1126.5C 2162.7,1145.03 2181.2,1163.7 2199.5,1182.5C 2086.68,1276.55 1962.34,1352.05 1826.5,1409C 1659.62,1478.28 1485.62,1518.28 1304.5,1529C 1292.99,1529.29 1281.49,1529.79 1270,1530.5C 1267.13,1530.32 1264.3,1529.98 1261.5,1529.5C 1261.5,1508.5 1261.5,1487.5 1261.5,1466.5C 1497.24,1467.66 1716.24,1408.82 1918.5,1290C 1999.44,1241.54 2074.77,1185.71 2144.5,1122.5 Z"/></g>
<g><path style="opacity:1" fill="#123770" d="M 2833.5,1164.5 C 2833.5,1187.5 2833.5,1210.5 2833.5,1233.5C 2832.67,1227.68 2832.17,1221.68 2832,1215.5C 2694.63,1352.7 2557.47,1490.03 2420.5,1627.5C 2397.17,1627.5 2373.83,1627.5 2350.5,1627.5C 2510.75,1466.75 2671.25,1306.08 2832,1145.5C 2832.17,1152.01 2832.67,1158.35 2833.5,1164.5 Z"/></g>
<g><path style="opacity:1" fill="#0c316a" d="M 2266.5,1182.5 C 2279.48,1195.14 2292.82,1208.14 2306.5,1221.5C 2291.45,1240.38 2275.28,1258.04 2258,1274.5C 2257.67,1275.5 2257.33,1276.5 2257,1277.5C 2247.54,1284.62 2239.04,1292.79 2231.5,1302C 2230.5,1302.33 2229.5,1302.67 2228.5,1303C 2225.6,1306.07 2222.6,1308.9 2219.5,1311.5C 2218.76,1311.63 2218.09,1311.46 2217.5,1311C 2204.27,1297.6 2190.94,1284.44 2177.5,1271.5C 2208.23,1242.95 2237.9,1213.29 2266.5,1182.5 Z"/></g>
<g><path style="opacity:1" fill="#12376a" d="M 2833.5,1233.5 C 2833.5,1239.17 2833.5,1244.83 2833.5,1250.5C 2832.67,1257.99 2832.17,1265.66 2832,1273.5C 2713.97,1391.37 2596.13,1509.37 2478.5,1627.5C 2459.17,1627.5 2439.83,1627.5 2420.5,1627.5C 2557.47,1490.03 2694.63,1352.7 2832,1215.5C 2832.17,1221.68 2832.67,1227.68 2833.5,1233.5 Z"/></g>
<g><path style="opacity:1" fill="#0c376f" d="M 2177.5,1271.5 C 2190.94,1284.44 2204.27,1297.6 2217.5,1311C 2218.09,1311.46 2218.76,1311.63 2219.5,1311.5C 2195.26,1334.75 2169.26,1355.75 2141.5,1374.5C 2128.14,1361.81 2115.14,1348.81 2102.5,1335.5C 2128.06,1314.88 2153.06,1293.54 2177.5,1271.5 Z"/></g>
<g><path style="opacity:1" fill="#0e326a" d="M 2833.5,1250.5 C 2833.5,1277.5 2833.5,1304.5 2833.5,1331.5C 2734.5,1429.83 2635.83,1528.5 2537.5,1627.5C 2517.83,1627.5 2498.17,1627.5 2478.5,1627.5C 2596.13,1509.37 2713.97,1391.37 2832,1273.5C 2832.17,1265.66 2832.67,1257.99 2833.5,1250.5 Z"/></g>
<g><path style="opacity:1" fill="#0c3164" d="M 2833.5,1331.5 C 2833.5,1362.17 2833.5,1392.83 2833.5,1423.5C 2832.53,1423.99 2831.53,1424.49 2830.5,1425C 2764.5,1491.33 2698.5,1557.67 2632.5,1624C 2631.33,1624.42 2630.33,1625.09 2629.5,1626C 2621.99,1626.17 2614.66,1626.67 2607.5,1627.5C 2584.17,1627.5 2560.83,1627.5 2537.5,1627.5C 2635.83,1528.5 2734.5,1429.83 2833.5,1331.5 Z"/></g>
<g><path style="opacity:1" fill="#0c3775" d="M 2102.5,1335.5 C 2115.14,1348.81 2128.14,1361.81 2141.5,1374.5C 2139.19,1375.98 2137.36,1377.98 2136,1380.5C 2135.67,1380.17 2135.33,1379.83 2135,1379.5C 2125.19,1386.64 2115.35,1393.64 2105.5,1400.5C 2092.59,1389.09 2080.09,1377.09 2068,1364.5C 2067.52,1363.55 2067.35,1362.55 2067.5,1361.5C 2079.14,1352.87 2090.8,1344.21 2102.5,1335.5 Z"/></g>
<g><path style="opacity:1" fill="#0c3d75" d="M 2067.5,1361.5 C 2067.35,1362.55 2067.52,1363.55 2068,1364.5C 2080.09,1377.09 2092.59,1389.09 2105.5,1400.5C 2088.37,1412.24 2070.71,1423.24 2052.5,1433.5C 2041.2,1422.7 2030.03,1411.7 2019,1400.5C 2018.62,1398.43 2019.45,1396.93 2021.5,1396C 2020.91,1395.54 2020.24,1395.37 2019.5,1395.5C 2035.73,1384.62 2051.73,1373.29 2067.5,1361.5 Z"/></g>
<g><path style="opacity:1" fill="#113d7c" d="M 2019.5,1395.5 C 2020.24,1395.37 2020.91,1395.54 2021.5,1396C 2019.45,1396.93 2018.62,1398.43 2019,1400.5C 2030.03,1411.7 2041.2,1422.7 2052.5,1433.5C 2027.23,1448.05 2001.4,1461.72 1975,1474.5C 1965.04,1465.54 1955.37,1456.21 1946,1446.5C 1945.21,1445.26 1944.71,1443.92 1944.5,1442.5C 1969.59,1427.11 1994.59,1411.45 2019.5,1395.5 Z"/></g>
<g><path style="opacity:1" fill="#0c2a64" d="M 2833.5,1423.5 C 2833.5,1437.5 2833.5,1451.5 2833.5,1465.5C 2778.55,1518.78 2724.22,1572.78 2670.5,1627.5C 2649.5,1627.5 2628.5,1627.5 2607.5,1627.5C 2614.66,1626.67 2621.99,1626.17 2629.5,1626C 2630.33,1625.09 2631.33,1624.42 2632.5,1624C 2698.5,1557.67 2764.5,1491.33 2830.5,1425C 2831.53,1424.49 2832.53,1423.99 2833.5,1423.5 Z"/></g>
<g><path style="opacity:1" fill="#124382" d="M 1917.5,1457.5 C 1917.67,1458.82 1917.34,1459.99 1916.5,1461C 1925.26,1470.55 1934.26,1479.88 1943.5,1489C 1919.86,1501.15 1895.53,1511.65 1870.5,1520.5C 1862.08,1511.42 1853.42,1502.75 1844.5,1494.5C 1869.38,1483.1 1893.72,1470.77 1917.5,1457.5 Z"/></g>
<g><path style="opacity:1" fill="#062b5d" d="M 2833.5,1465.5 C 2833.5,1501.17 2833.5,1536.83 2833.5,1572.5C 2832.67,1565.68 2832.17,1558.68 2832,1551.5C 2806.63,1576.7 2781.47,1602.03 2756.5,1627.5C 2727.83,1627.5 2699.17,1627.5 2670.5,1627.5C 2724.22,1572.78 2778.55,1518.78 2833.5,1465.5 Z"/></g>
<g><path style="opacity:1" fill="#154b8a" d="M 1844.5,1494.5 C 1853.42,1502.75 1862.08,1511.42 1870.5,1520.5C 1846.47,1529.34 1822.47,1538.17 1798.5,1547C 1792.75,1549.13 1786.75,1550.47 1780.5,1551C 1751.59,1561.06 1722.26,1569.9 1692.5,1577.5C 1693.57,1575.72 1695.24,1574.55 1697.5,1574C 1696.87,1573.25 1696.37,1572.42 1696,1571.5C 1691.76,1567.72 1687.76,1563.72 1684,1559.5C 1681.7,1560.87 1679.2,1561.53 1676.5,1561.5C 1734.05,1542.66 1790.05,1520.33 1844.5,1494.5 Z"/></g>
<g><path style="opacity:1" fill="#05255b" d="M 2833.5,1572.5 C 2833.5,1590.83 2833.5,1609.17 2833.5,1627.5C 2807.83,1627.5 2782.17,1627.5 2756.5,1627.5C 2781.47,1602.03 2806.63,1576.7 2832,1551.5C 2832.17,1558.68 2832.67,1565.68 2833.5,1572.5 Z"/></g>
<g><path style="opacity:1" fill="#1a569a" d="M 1692.5,1577.5 C 1686.84,1576.75 1681.5,1577.91 1676.5,1581C 1611.08,1597.04 1544.41,1609.38 1476.5,1618C 1443.06,1621.59 1409.73,1624.76 1376.5,1627.5C 1370.79,1627.83 1365.13,1627.5 1359.5,1626.5C 1440.13,1617.54 1519.8,1603.37 1598.5,1584C 1624.5,1576.39 1650.5,1568.89 1676.5,1561.5C 1679.2,1561.53 1681.7,1560.87 1684,1559.5C 1687.76,1563.72 1691.76,1567.72 1696,1571.5C 1696.37,1572.42 1696.87,1573.25 1697.5,1574C 1695.24,1574.55 1693.57,1575.72 1692.5,1577.5 Z"/></g>
<g><path style="opacity:1" fill="#3775b4" d="M 2831.5,1850.5 C 2832.83,1850.5 2834.17,1850.5 2835.5,1850.5C 2870.25,1931.7 2905.42,2013.03 2941,2094.5C 2947.32,2107.82 2954.66,2120.49 2963,2132.5C 2965.99,2135.65 2969.16,2138.65 2972.5,2141.5C 2974.73,2142.9 2977.06,2144.07 2979.5,2145C 2981.04,2146.11 2981.7,2147.61 2981.5,2149.5C 2937.17,2149.5 2892.83,2149.5 2848.5,2149.5C 2848.24,2148.02 2848.57,2146.69 2849.5,2145.5C 2869.47,2140.68 2876.64,2128.35 2871,2108.5C 2864.56,2093.28 2858.39,2077.94 2852.5,2062.5C 2818.49,2062.17 2784.49,2062.5 2750.5,2063.5C 2743.45,2078.83 2737.28,2094.5 2732,2110.5C 2731.47,2125.27 2737.97,2135.77 2751.5,2142C 2755.27,2143.05 2758.93,2144.38 2762.5,2146C 2763.34,2147.01 2763.67,2148.18 2763.5,2149.5C 2736.83,2149.5 2710.17,2149.5 2683.5,2149.5C 2683.33,2148.18 2683.66,2147.01 2684.5,2146C 2693.83,2141.41 2702,2135.25 2709,2127.5C 2715.77,2117.63 2721.77,2107.29 2727,2096.5C 2761.66,2014.2 2796.5,1932.2 2831.5,1850.5 Z M 2801.5,1944.5 C 2817.45,1980.85 2833.12,2017.35 2848.5,2054C 2817.16,2054.83 2785.83,2054.67 2754.5,2053.5C 2770.44,2017.29 2786.11,1980.95 2801.5,1944.5 Z"/></g>
<g><path style="opacity:1" fill="#3775b4" d="M 2199.5,1853.5 C 2235.26,1852.62 2270.26,1857.29 2304.5,1867.5C 2305.5,1897.49 2305.83,1927.49 2305.5,1957.5C 2304.18,1957.67 2303.01,1957.34 2302,1956.5C 2291.39,1930.84 2277.72,1907.17 2261,1885.5C 2251.91,1874.72 2240.74,1867.22 2227.5,1863C 2209.32,1859.78 2193.32,1864.12 2179.5,1876C 2167.53,1887.71 2158.37,1901.54 2152,1917.5C 2138.7,1957.11 2137.36,1997.11 2148,2037.5C 2164.65,2089.42 2200.15,2111.92 2254.5,2105C 2281.26,2099.29 2302.26,2085.13 2317.5,2062.5C 2319.38,2063.69 2319.88,2065.36 2319,2067.5C 2292.68,2138.09 2242.18,2166.26 2167.5,2152C 2119.07,2137.57 2088.24,2106.07 2075,2057.5C 2059.38,1989.74 2076.88,1932.58 2127.5,1886C 2148.66,1868.89 2172.66,1858.06 2199.5,1853.5 Z"/></g>
<g><path style="opacity:1" fill="#3775b4" d="M 3443.5,1853.5 C 3463.62,1852.81 3483.62,1853.98 3503.5,1857C 3519.27,1860.09 3534.94,1863.59 3550.5,1867.5C 3550.5,1897.5 3550.5,1927.5 3550.5,1957.5C 3549.32,1957.72 3548.32,1957.39 3547.5,1956.5C 3538.92,1938.33 3529.58,1920.66 3519.5,1903.5C 3515.16,1897.33 3510.66,1891.33 3506,1885.5C 3502.74,1882.45 3499.57,1879.28 3496.5,1876C 3478.73,1861.43 3459.06,1858.43 3437.5,1867C 3419.2,1878.62 3406.04,1894.46 3398,1914.5C 3382.98,1956.38 3381.65,1998.71 3394,2041.5C 3412.03,2090.82 3447.2,2111.99 3499.5,2105C 3520.15,2100.67 3537.65,2090.84 3552,2075.5C 3555.06,2069.94 3559.23,2065.61 3564.5,2062.5C 3539.3,2138.05 3487.3,2167.55 3408.5,2151C 3356.71,2133.84 3326.21,2098 3317,2043.5C 3306.51,1973.4 3329.34,1917.57 3385.5,1876C 3403.37,1864.54 3422.7,1857.04 3443.5,1853.5 Z"/></g>
<g><path style="opacity:1" fill="#3875b5" d="M 253.5,1859.5 C 294.072,1859.17 334.572,1859.5 375,1860.5C 375.688,1861.33 375.521,1862 374.5,1862.5C 360.69,1867.77 352.857,1877.77 351,1892.5C 350.333,1953.17 350.333,2013.83 351,2074.5C 354.959,2116.62 378.125,2137.62 420.5,2137.5C 457.746,2137.66 480.246,2119.66 488,2083.5C 488.667,2022.5 488.667,1961.5 488,1900.5C 484.939,1887.19 478.439,1876.03 468.5,1867C 466.5,1866 464.5,1865 462.5,1864C 460.963,1862.89 460.297,1861.39 460.5,1859.5C 482.5,1859.5 504.5,1859.5 526.5,1859.5C 526.649,1860.55 526.483,1861.55 526,1862.5C 509.563,1872.05 500.23,1886.38 498,1905.5C 497.667,1964.5 497.333,2023.5 497,2082.5C 490.878,2119.89 469.378,2143.06 432.5,2152C 396.263,2158.75 360.93,2155.75 326.5,2143C 304.152,2132.54 288.986,2115.71 281,2092.5C 279.611,2085.22 278.611,2077.89 278,2070.5C 277.667,2010.5 277.333,1950.5 277,1890.5C 275.014,1876.84 267.514,1867.68 254.5,1863C 253.663,1861.99 253.33,1860.82 253.5,1859.5 Z"/></g>
<g><path style="opacity:1" fill="#3775b4" d="M 566.5,1859.5 C 597.84,1859.17 629.174,1859.5 660.5,1860.5C 707.903,1918.4 754.736,1976.73 801,2035.5C 801.667,1991.83 801.667,1948.17 801,1904.5C 798.563,1885.78 789.23,1871.78 773,1862.5C 772.517,1861.55 772.351,1860.55 772.5,1859.5C 794.5,1859.5 816.5,1859.5 838.5,1859.5C 838.649,1860.55 838.483,1861.55 838,1862.5C 823.073,1871.65 814.073,1884.98 811,1902.5C 810.5,1986.83 810.333,2071.17 810.5,2155.5C 809.178,2155.67 808.011,2155.34 807,2154.5C 771.394,2110.37 736.06,2066.04 701,2021.5C 667.824,1980.92 634.824,1939.92 602,1898.5C 601.04,1968.52 601.374,2038.52 603,2108.5C 606.024,2124.91 614.691,2137.24 629,2145.5C 629.49,2146.79 629.657,2148.13 629.5,2149.5C 607.833,2149.5 586.167,2149.5 564.5,2149.5C 565.509,2145.32 568.176,2142.48 572.5,2141C 585.62,2129.59 592.453,2115.09 593,2097.5C 593.667,2029.5 593.667,1961.5 593,1893.5C 589.163,1879 580.33,1868.83 566.5,1863C 565.316,1861.85 565.316,1860.69 566.5,1859.5 Z"/></g>
<g><path style="opacity:1" fill="#3775b5" d="M 876.5,1859.5 C 916.5,1859.5 956.5,1859.5 996.5,1859.5C 996.762,1860.98 996.429,1862.31 995.5,1863.5C 984.144,1868.2 976.978,1876.53 974,1888.5C 973.333,1965.83 973.333,2043.17 974,2120.5C 976.967,2132.43 984.134,2140.76 995.5,2145.5C 996.429,2146.69 996.762,2148.02 996.5,2149.5C 956.5,2149.5 916.5,2149.5 876.5,2149.5C 876.238,2148.02 876.571,2146.69 877.5,2145.5C 889.867,2140.63 897.367,2131.63 900,2118.5C 900.667,2042.5 900.667,1966.5 900,1890.5C 897.461,1877.76 890.295,1868.92 878.5,1864C 876.963,1862.89 876.297,1861.39 876.5,1859.5 Z"/></g>
<g><path style="opacity:1" fill="#3875b4" d="M 1039.5,1859.5 C 1126.17,1859.5 1212.83,1859.5 1299.5,1859.5C 1301.83,1887.45 1303.5,1915.45 1304.5,1943.5C 1303.18,1943.67 1302.01,1943.34 1301,1942.5C 1298.67,1937.17 1296.33,1931.83 1294,1926.5C 1285.73,1909.06 1274.23,1894.06 1259.5,1881.5C 1242.98,1871.78 1224.98,1867.11 1205.5,1867.5C 1205.33,1949.5 1205.5,2031.5 1206,2113.5C 1206.89,2125.45 1212.05,2134.95 1221.5,2142C 1224.56,2143.2 1227.56,2144.37 1230.5,2145.5C 1230.5,2146.83 1230.5,2148.17 1230.5,2149.5C 1190.17,2149.5 1149.83,2149.5 1109.5,2149.5C 1109.24,2148.02 1109.57,2146.69 1110.5,2145.5C 1124.72,2140.11 1132.22,2129.77 1133,2114.5C 1133.5,2032.17 1133.67,1949.83 1133.5,1867.5C 1106.17,1866.61 1083.33,1875.94 1065,1895.5C 1054.62,1908.93 1046.29,1923.6 1040,1939.5C 1039.06,1941.06 1037.89,1942.39 1036.5,1943.5C 1036.61,1915.49 1037.61,1887.49 1039.5,1859.5 Z"/></g>
<g><path style="opacity:1" fill="#3875b5" d="M 1322.5,1859.5 C 1396.83,1859.5 1471.17,1859.5 1545.5,1859.5C 1545.5,1886.83 1545.5,1914.17 1545.5,1941.5C 1543.41,1941.44 1541.91,1940.44 1541,1938.5C 1533.03,1918.04 1521.19,1900.21 1505.5,1885C 1491.54,1875.01 1475.87,1869.34 1458.5,1868C 1445.17,1867.5 1431.84,1867.33 1418.5,1867.5C 1418.5,1910.17 1418.5,1952.83 1418.5,1995.5C 1442.67,1997.95 1462.84,1990.28 1479,1972.5C 1485.02,1964.44 1490.52,1956.11 1495.5,1947.5C 1496.83,1983.83 1496.83,2020.17 1495.5,2056.5C 1488.91,2043.42 1480.58,2031.58 1470.5,2021C 1455.65,2008.44 1438.32,2002.61 1418.5,2003.5C 1418.33,2042.17 1418.5,2080.83 1419,2119.5C 1421.29,2127.45 1426.12,2133.29 1433.5,2137C 1476.3,2148.82 1510.13,2136.65 1535,2100.5C 1543.87,2086.1 1551.7,2071.1 1558.5,2055.5C 1559.32,2054.61 1560.32,2054.28 1561.5,2054.5C 1559.32,2086.17 1556.98,2117.84 1554.5,2149.5C 1477.17,2149.5 1399.83,2149.5 1322.5,2149.5C 1322.24,2148.02 1322.57,2146.69 1323.5,2145.5C 1334.59,2140.96 1341.76,2132.96 1345,2121.5C 1346.13,2082.52 1346.63,2043.52 1346.5,2004.5C 1346.63,1965.15 1346.13,1925.82 1345,1886.5C 1341.41,1875.41 1334.24,1867.74 1323.5,1863.5C 1322.57,1862.31 1322.24,1860.98 1322.5,1859.5 Z"/></g>
<g><path style="opacity:1" fill="#3775b4" d="M 1591.5,1859.5 C 1640.5,1859.33 1689.5,1859.5 1738.5,1860C 1789.68,1861.65 1828.84,1883.82 1856,1926.5C 1873.37,1963.47 1878.04,2002.13 1870,2042.5C 1853.03,2099.47 1815.53,2134.31 1757.5,2147C 1749.84,2147.72 1742.17,2148.39 1734.5,2149C 1686.83,2149.5 1639.17,2149.67 1591.5,2149.5C 1591.5,2148.17 1591.5,2146.83 1591.5,2145.5C 1604.73,2141.77 1612.56,2133.11 1615,2119.5C 1616.15,2081.2 1616.65,2042.87 1616.5,2004.5C 1616.65,1966.13 1616.15,1927.8 1615,1889.5C 1612.52,1876.35 1605.02,1867.52 1592.5,1863C 1591.66,1861.99 1591.33,1860.82 1591.5,1859.5 Z M 1688.5,1867.5 C 1724.74,1862.05 1752.24,1874.71 1771,1905.5C 1782.97,1929.74 1790.3,1955.41 1793,1982.5C 1794.7,2011.67 1793.36,2040.67 1789,2069.5C 1784.8,2089.84 1775.97,2107.84 1762.5,2123.5C 1745.27,2138.96 1725.27,2144.12 1702.5,2139C 1696.64,2137.49 1692.47,2133.99 1690,2128.5C 1688.52,2041.53 1688.02,1954.53 1688.5,1867.5 Z"/></g>
<g><path style="opacity:1" fill="#3875b5" d="M 2357.5,1859.5 C 2397.83,1859.5 2438.17,1859.5 2478.5,1859.5C 2478.67,1860.82 2478.34,1861.99 2477.5,1863C 2467.25,1867.59 2460.08,1875.09 2456,1885.5C 2454.55,1921.81 2454.05,1958.14 2454.5,1994.5C 2489.5,1994.5 2524.5,1994.5 2559.5,1994.5C 2559.67,1960.83 2559.5,1927.17 2559,1893.5C 2556.59,1878.94 2548.76,1868.61 2535.5,1862.5C 2534.61,1861.68 2534.28,1860.68 2534.5,1859.5C 2574.83,1859.5 2615.17,1859.5 2655.5,1859.5C 2655.67,1860.82 2655.34,1861.99 2654.5,1863C 2642.39,1868.39 2634.89,1877.55 2632,1890.5C 2631.33,1966.5 2631.33,2042.5 2632,2118.5C 2634.66,2131.65 2642.16,2140.65 2654.5,2145.5C 2655.43,2146.69 2655.76,2148.02 2655.5,2149.5C 2615.17,2149.5 2574.83,2149.5 2534.5,2149.5C 2534.33,2148.18 2534.66,2147.01 2535.5,2146C 2548.93,2140.23 2556.76,2130.06 2559,2115.5C 2559.5,2077.83 2559.67,2040.17 2559.5,2002.5C 2524.5,2002.5 2489.5,2002.5 2454.5,2002.5C 2454.04,2042.86 2454.54,2083.2 2456,2123.5C 2459.36,2134.1 2466.19,2141.26 2476.5,2145C 2478.04,2146.11 2478.7,2147.61 2478.5,2149.5C 2438.17,2149.5 2397.83,2149.5 2357.5,2149.5C 2357.5,2148.17 2357.5,2146.83 2357.5,2145.5C 2370.58,2141.72 2378.42,2133.06 2381,2119.5C 2382.14,2081.19 2382.64,2042.86 2382.5,2004.5C 2382.64,1966.14 2382.14,1927.81 2381,1889.5C 2378.27,1876.5 2370.77,1867.67 2358.5,1863C 2357.66,1861.99 2357.33,1860.82 2357.5,1859.5 Z"/></g>
<g><path style="opacity:1" fill="#3775b5" d="M 3008.5,1859.5 C 3039.84,1859.17 3071.17,1859.5 3102.5,1860.5C 3149.23,1918.94 3196.07,1977.27 3243,2035.5C 3243.67,1992.83 3243.67,1950.17 3243,1907.5C 3241.01,1887.85 3231.68,1872.85 3215,1862.5C 3214.52,1861.55 3214.35,1860.55 3214.5,1859.5C 3236.5,1859.5 3258.5,1859.5 3280.5,1859.5C 3280.65,1860.55 3280.48,1861.55 3280,1862.5C 3270.31,1867.86 3262.98,1875.53 3258,1885.5C 3256.14,1890.76 3254.47,1896.09 3253,1901.5C 3252.5,1986.17 3252.33,2070.83 3252.5,2155.5C 3251.18,2155.67 3250.01,2155.34 3249,2154.5C 3180.26,2069.43 3111.93,1984.1 3044,1898.5C 3043.33,1966.17 3043.33,2033.83 3044,2101.5C 3044.89,2118.12 3051.73,2131.62 3064.5,2142C 3066.75,2143.04 3068.91,2144.21 3071,2145.5C 3071.49,2146.79 3071.66,2148.13 3071.5,2149.5C 3049.5,2149.5 3027.5,2149.5 3005.5,2149.5C 3005.5,2148.17 3005.5,2146.83 3005.5,2145.5C 3017.17,2140.32 3025.34,2131.66 3030,2119.5C 3031.49,2113.87 3032.82,2108.2 3034,2102.5C 3034.67,2031.83 3034.67,1961.17 3034,1890.5C 3029.2,1878.53 3021.03,1869.53 3009.5,1863.5C 3008.57,1862.31 3008.24,1860.98 3008.5,1859.5 Z"/></g>
<g><path style="opacity:1" fill="#3875b4" d="M 3602.5,1859.5 C 3676.83,1859.5 3751.17,1859.5 3825.5,1859.5C 3825.83,1886.84 3825.5,1914.17 3824.5,1941.5C 3823.52,1941.02 3822.69,1940.36 3822,1939.5C 3815.5,1925.68 3808.17,1912.35 3800,1899.5C 3785.87,1882.51 3767.7,1872.34 3745.5,1869C 3729.87,1867.64 3714.2,1867.14 3698.5,1867.5C 3698.5,1910.17 3698.5,1952.83 3698.5,1995.5C 3729.03,1997.96 3752.2,1986.3 3768,1960.5C 3769.91,1956.34 3772.08,1952.34 3774.5,1948.5C 3775.32,1947.61 3776.32,1947.28 3777.5,1947.5C 3777.5,1983.83 3777.5,2020.17 3777.5,2056.5C 3776.18,2056.67 3775.01,2056.34 3774,2055.5C 3765.75,2033.92 3751.25,2018.09 3730.5,2008C 3720.07,2004.86 3709.4,2003.36 3698.5,2003.5C 3698.33,2040.5 3698.5,2077.5 3699,2114.5C 3699.16,2125.63 3704.33,2133.13 3714.5,2137C 3753.03,2147.72 3784.86,2137.89 3810,2107.5C 3821.31,2091.23 3830.81,2073.89 3838.5,2055.5C 3839.32,2054.61 3840.32,2054.28 3841.5,2054.5C 3839.02,2086.16 3836.69,2117.83 3834.5,2149.5C 3756.83,2149.5 3679.17,2149.5 3601.5,2149.5C 3601.33,2148.18 3601.66,2147.01 3602.5,2146C 3614.25,2141.59 3621.75,2133.42 3625,2121.5C 3626.15,2082.53 3626.65,2043.53 3626.5,2004.5C 3626.33,1967.5 3626.17,1930.5 3626,1893.5C 3624.48,1878.48 3616.64,1868.15 3602.5,1862.5C 3601.44,1861.58 3601.44,1860.58 3602.5,1859.5 Z"/></g>
</svg>
